<?xml version="1.0" encoding="UTF-8"?>
<svg width="700pt" height="700pt" version="1.1" viewBox="0 0 700 550" xmlns="http://www.w3.org/2000/svg">
 <path fill="white" d="m568.96 414.21c11.059 11.094 16.168 26.793 13.762 42.273-2.4062 15.477-12.039 28.887-25.941 36.102-39.176 20.938-84.82 26.289-127.77 14.98-114.01-28.699-277.88-192.57-306.58-306.58-11.309-42.953-5.957-88.598 14.98-127.77 7.2148-13.902 20.625-23.535 36.102-25.941 15.48-2.4062 31.18 2.7031 42.273 13.762l48.652 48.629c7.0156 6.9453 11.762 15.852 13.617 25.547 1.8516 9.6992 0.72656 19.73-3.2344 28.773-4.332 10.145-10.484 19.414-18.152 27.344-55.625 55.625 126.4 237.65 182 182 7.9336-7.6953 17.207-13.871 27.367-18.223 9.043-3.9648 19.074-5.0977 28.773-3.2422 9.6992 1.8555 18.605 6.6055 25.547 13.625zm-125.63-157.55c6.1914 0 12.125-2.4609 16.5-6.8359s6.8359-10.309 6.8359-16.5v-46.664h46.668-0.003907c8.3359 0 16.039-4.4492 20.207-11.668 4.168-7.2188 4.168-16.113 0-23.332-4.168-7.2188-11.871-11.668-20.207-11.668h-46.664v-46.668c0-8.3359-4.4492-16.039-11.668-20.207s-16.113-4.168-23.332 0-11.668 11.871-11.668 20.207v46.668h-46.668c-8.3359 0-16.039 4.4492-20.207 11.668s-4.168 16.113 0 23.332 11.871 11.668 20.207 11.668h46.668v46.668-0.003907c0 6.1914 2.457 12.125 6.8359 16.5 4.375 4.375 10.309 6.8359 16.496 6.8359z"/>
</svg>
