<?xml version="1.0" encoding="UTF-8"?>
<svg width="700pt" height="700pt" version="1.1" viewBox="0 0 700 550" xmlns="http://www.w3.org/2000/svg">
 <g fill="white">
  <path d="m514.85 127.23h-14.875c-0.35156-12.949-5.25-25.023-14.699-34.301-9.4492-9.1016-22.227-14.352-35.176-14.352-27.125 0-49.176 21.699-49.875 48.824h-100.8v-3.1484c0-13.125-5.0742-25.727-14.699-35.523-9.4492-9.2734-22.051-14.352-35.176-14.352-27.477 0-49.875 22.398-49.875 49.875v2.9766h-14.527c-44.273 0-80.148 35.875-80.148 79.973v198.27c0 44.102 35.875 80.148 80.148 80.148h329.7c44.102 0 80.148-35.875 80.148-80.148l0.003906-198.27c0-44.098-35.875-79.973-80.148-79.973zm-75.953 0.875c0-6.125 5.0742-11.023 11.199-11.023 2.9766 0 5.9492 1.2266 8.0508 3.1484 2.1016 2.1016 3.3242 4.8984 3.3242 7.875v36.574c0 1.3984-0.35156 2.8008-0.875 4.0234 0 0.17578-0.17578 0.35156-0.17578 0.52344-0.52344 1.2266-1.2266 2.2734-2.2734 3.3242-1.9258 1.9258-4.5508 3.1484-7.5234 3.1484h-0.69922c-0.69922 0-1.5742-0.35156-2.2734-0.52344-0.875-0.17578-1.75-0.35156-2.4492-0.875-3.5-2.1016-6.125-6.6484-6.125-11.551l-0.003906-16.27v-18.375zm-200.38-3.8516c0-6.125 5.0742-11.199 11.199-11.199 4.0234 0 6.8242 2.1016 7.875 3.1484 1.2266 1.2266 3.3242 4.0234 3.3242 8.0508v35.523c0 2.625-0.875 5.25-2.1016 7.3516 0 0.17578-0.17578 0.17578-0.17578 0.35156-0.52344 0.69922-1.0508 1.3984-1.75 1.9258-0.69922 0.52344-1.3984 1.0508-2.1016 1.3984-0.35156 0.17578-0.69922 0.35156-0.875 0.52344-1.2266 0.52344-2.4492 0.69922-3.8516 0.69922h-0.17578c-1.3984 0-2.625-0.35156-3.8516-0.875-0.51562-0.17188-0.86328-0.17188-1.0391-0.34766-0.875-0.35156-1.75-1.0508-2.4492-1.75-0.875-0.875-1.5742-1.75-2.2734-2.8008-0.17578-0.17578-0.52734-0.52344-0.70312-0.875-0.69922-1.3984-1.0508-2.9766-1.0508-4.7266zm317.8 281.4c0 22.926-18.551 41.477-41.477 41.477h-329.7c-22.926 0-41.477-18.551-41.477-41.477l0.003906-198.45c0-22.926 18.551-41.477 41.477-41.477h14.875c0 0.875 0.35156 1.5742 0.52344 2.4492 0.17578 1.75 0.52344 3.3242 1.0508 4.8984 0.35156 1.5742 0.875 3.3242 1.5742 4.8984 0.52344 1.3984 1.2266 2.8008 1.9258 4.1992 0.69922 1.5742 1.5742 3.1484 2.4492 4.5508 0.875 1.3984 1.75 2.625 2.8008 3.8516 1.0508 1.2266 1.9258 2.625 3.1484 3.6758 1.2266 1.3984 2.625 2.625 4.0234 3.8516 0.69922 0.69922 1.3984 1.3984 2.1016 1.9258 0.35156 0.17578 0.69922 0.35156 1.0508 0.69922 2.2734 1.5742 4.5508 2.9766 7.1758 4.1992 0.69922 0.35156 1.3984 0.875 2.1016 1.2266 3.3242 1.3984 6.6484 2.4492 10.148 3.1484 0.69922 0.17578 1.5742 0.17578 2.4492 0.17578 2.4492 0.35156 4.8984 0.69922 7.3516 0.69922 0.35156 0 0.69922-0.17578 1.0508-0.17578 1.2266 0 2.4492-0.17578 3.8516-0.35156 2.2734-0.17578 4.7266-0.52344 7-1.0508 0.52344-0.17578 1.2266-0.17578 1.75-0.35156 1.9258-0.52344 3.6758-1.2266 5.6016-1.9258 0.17578 0 0.35156-0.17578 0.52344-0.17578 2.9766-1.2266 5.6016-2.8008 8.2266-4.5508 0.17578-0.17578 0.35156-0.35156 0.52344-0.52344 2.1016-1.3984 4.0234-2.9766 5.7734-4.7266 0.875-0.875 1.75-1.75 2.4492-2.625 0.875-1.0508 1.75-2.1016 2.625-3.1484 4.0234-5.0742 7-11.023 8.75-17.324 0-0.17578 0.17578-0.52344 0.17578-0.69922 0.52344-1.75 0.875-3.6758 1.0508-5.6016 0.17578-0.52344 0.17578-1.0508 0.35156-1.75h101.15c0 0.35156 0.17578 0.52344 0.17578 0.875 0.69922 18.375 11.375 34.125 26.949 42.176 0.35156 0.17578 0.875 0.52344 1.2266 0.69922 1.75 0.875 3.5 1.5742 5.4258 2.1016 1.3984 0.52344 2.8008 0.875 4.1992 1.3984 1.3984 0.35156 2.625 0.52344 4.0234 0.875 0.875 0.17578 1.75 0.52344 2.8008 0.52344h2.625c0.875 0 1.5742 0.17578 2.4492 0.17578s1.75-0.17578 2.8008-0.35156c1.75-0.17578 3.3242-0.17578 4.8984-0.52344 1.75-0.35156 3.5-0.69922 5.25-1.2266 1.5742-0.35156 2.9766-0.875 4.375-1.3984 1.75-0.69922 3.3242-1.3984 4.8984-2.2734 1.3984-0.69922 2.8008-1.3984 4.1992-2.2734 1.5742-0.875 2.8008-1.9258 4.1992-3.1484 0.875-0.69922 1.9258-1.2266 2.8008-2.1016 0.35156-0.35156 0.52344-0.69922 0.875-1.0508 1.2266-1.0508 2.1016-2.4492 3.3242-3.6758 1.0508-1.2266 2.2734-2.4492 3.1484-3.8516 1.0508-1.3984 1.75-2.9766 2.625-4.5508 0.69922-1.3984 1.5742-2.625 2.1016-3.8516 0.69922-1.75 1.2266-3.5 1.75-5.4258 0.35156-1.3984 0.875-2.625 1.2266-4.0234 0.35156-1.75 0.52344-3.5 0.69922-5.25 0.17578-1.3984 0.52344-2.8008 0.52344-4.1992h14.875c22.926 0 41.477 18.551 41.477 41.477v199.33z"/>
  <path d="m491.23 248.68h-282.45c-10.676 0-19.426 8.75-19.426 19.426 0 10.676 8.5742 19.426 19.426 19.426h282.62c10.676 0 19.426-8.75 19.426-19.426-0.17578-10.676-8.9258-19.426-19.598-19.426z"/>
 </g>
</svg>
