<?xml version="1.0" encoding="UTF-8"?>
<svg width="700pt" height="700pt" version="1.1" viewBox="0 0 700 550" xmlns="http://www.w3.org/2000/svg" xmlns:xlink="http://www.w3.org/1999/xlink">
 <g fill="white" stroke-width="10px" stroke="white">
  <path d="m528.58 457.23c94.094-94.172 94.051-247.36-0.12109-341.49-45.602-45.625-106.24-70.766-170.73-70.766s-125.11 25.121-170.68 70.746c-94.105 94.117-94.059 247.32 0.10156 341.47 45.602 45.625 106.25 70.746 170.74 70.746 64.477-0.007813 125.1-25.129 170.69-70.707zm-318.04-318.03c39.312-39.348 91.582-61.012 147.2-61.012s107.91 21.676 147.25 61.035c81.219 81.184 81.262 213.31 0.10937 294.52-39.324 39.336-91.582 60.98-147.2 60.98-55.621 0-107.92-21.668-147.26-61.023-81.215-81.219-81.25-213.31-0.097656-294.5z"/>
  <path d="m512.79 286.51c0-9.168-7.4297-16.605-16.605-16.605l-131.39-0.023438-53.273-53.297c-6.4883-6.4883-16.996-6.4766-23.48-0.011719-6.4883 6.4883-6.4883 17.004-0.023437 23.492l58.012 58.059h0.023437c3 3.0664 7.1758 4.9727 11.812 4.9727l138.31 0.023438c9.1719-0.003906 16.613-7.4453 16.613-16.609z"/>
  <use x="80.378906" y="726.066406" xlink:href="#m"/>
  <use x="121.003906" y="726.066406" xlink:href="#c"/>
  <use x="148.304688" y="726.066406" xlink:href="#b"/>
  <use x="185.847656" y="726.066406" xlink:href="#h"/>
  <use x="223.199219" y="726.066406" xlink:href="#g"/>
  <use x="249.664062" y="726.066406" xlink:href="#b"/>
  <use x="287.207031" y="726.066406" xlink:href="#a"/>
  <use x="346.101562" y="726.066406" xlink:href="#f"/>
  <use x="385.726562" y="726.066406" xlink:href="#e"/>
  <use x="441.082031" y="726.066406" xlink:href="#d"/>
  <use x="473.894531" y="726.066406" xlink:href="#l"/>
  <use x="511.925781" y="726.066406" xlink:href="#c"/>
  <use x="539.226562" y="726.066406" xlink:href="#k"/>
  <use x="578.851562" y="726.066406" xlink:href="#j"/>
  <use x="618.257812" y="726.066406" xlink:href="#i"/>
  <use x="670.480469" y="726.066406" xlink:href="#a"/>
 </g>
</svg>
