<?xml version="1.0" encoding="UTF-8"?>
<svg width="700pt" height="700pt" version="1.1" viewBox="0 0 700 550" xmlns="http://www.w3.org/2000/svg" xmlns:xlink="http://www.w3.org/1999/xlink">
 <g fill="white">
  <path d="m163.1 275.19c8.043-5.1289 16.93-8.8008 26.25-10.852v-14.961c-0.24609-23.816 7.3242-47.059 21.547-66.164 14.223-19.105 34.316-33.023 57.203-39.625-9.168-14.293-23.742-24.254-40.391-27.598-16.648-3.3477-33.938 0.20703-47.918 9.8438-13.977 9.6406-23.445 24.543-26.23 41.293-0.57422 3.6836-3.418 6.5977-7.0859 7.2617-16.758 3.1484-30.82 14.488-37.449 30.195-6.6289 15.711-4.9414 33.695 4.4922 47.895 9.4336 14.203 25.355 22.73 42.406 22.711z"/>
  <path d="m493.06 280h-1.2266c-4.3633 0.050781-8.0938-3.125-8.75-7.4375-2.4453-19.488-11.848-37.438-26.48-50.543-14.629-13.102-33.504-20.48-53.145-20.77h-28.348c-2.957 0.015625-5.7227-1.4688-7.3516-3.9375-15.883-24.645-43.129-39.617-72.449-39.812-23.844 0.55078-46.496 10.531-62.996 27.75-16.496 17.223-25.5 40.281-25.027 64.125v22.398c0.03125 4.4531-3.2812 8.2188-7.7031 8.75-25.008 1.3164-47.414 15.871-58.781 38.184-11.367 22.316-9.9688 49 3.6719 70 13.645 21.004 37.453 33.133 62.461 31.816h286.12c25.008 0 48.117-13.34 60.621-35 12.504-21.656 12.504-48.34 0-70-12.504-21.656-35.613-35-60.621-35z"/>
  <path d="m560 192.5h-9.5391c-4.3047 0.0625-8.0156-3.0195-8.75-7.2617-2.4805-13.613-11.258-25.25-23.664-31.379-12.41-6.1289-26.984-6.0234-39.305 0.28125-12.316 6.3008-20.93 18.062-23.219 31.711-0.5625 3.6562-3.3633 6.5625-7 7.2617l-2.5391 0.69922h0.003906c27.086 13.719 46.492 38.98 52.762 68.688h61.25c12.504 0 24.059-6.6719 30.312-17.5 6.25-10.828 6.25-24.172 0-35-6.2539-10.828-17.809-17.5-30.312-17.5z"/>
  <use x="70" y="691.25" xlink:href="#n"/>
  <use x="102.109375" y="691.25" xlink:href="#h"/>
  <use x="123.683594" y="691.25" xlink:href="#c"/>
  <use x="153.355469" y="691.25" xlink:href="#a"/>
  <use x="182.878906" y="691.25" xlink:href="#b"/>
  <use x="203.792969" y="691.25" xlink:href="#c"/>
  <use x="233.464844" y="691.25" xlink:href="#g"/>
  <use x="280.011719" y="691.25" xlink:href="#f"/>
  <use x="311.328125" y="691.25" xlink:href="#e"/>
  <use x="355.078125" y="691.25" xlink:href="#d"/>
  <use x="386.589844" y="691.25" xlink:href="#a"/>
  <use x="416.113281" y="691.25" xlink:href="#b"/>
  <use x="437.027344" y="691.25" xlink:href="#a"/>
  <use x="466.546875" y="691.25" xlink:href="#m"/>
  <use x="506.964844" y="691.25" xlink:href="#a"/>
  <use x="536.488281" y="691.25" xlink:href="#b"/>
  <use x="572.632812" y="691.25" xlink:href="#l"/>
  <use x="606.492188" y="691.25" xlink:href="#k"/>
  <use x="637.640625" y="691.25" xlink:href="#j"/>
  <use x="668.785156" y="691.25" xlink:href="#i"/>
 </g>
</svg>
