<?xml version="1.0" encoding="UTF-8"?>
<svg width="700pt" height="700pt" version="1.1" viewBox="0 0 700 550" xmlns="http://www.w3.org/2000/svg" xmlns:xlink="http://www.w3.org/1999/xlink">
 <g fill="white" stroke="white" stroke-width="12">
  <path d="m213.9 245.08c-28.824 0-52.41 22.559-53.664 51.273-0.11328 2.1641-1.4805 4.1016-3.6445 4.8984-21.535 7.5195-36.004 27.914-36.004 50.703 0 29.625 24.039 53.664 53.664 53.664h263.54c29.625 0 53.664-24.039 53.664-53.664 0-22.789-14.469-43.184-36.004-50.703-2.0508-0.68359-3.5312-2.6211-3.6445-4.8984-1.2539-28.711-24.84-51.273-53.664-51.273-7.5195 0-14.926 1.5938-21.762 4.5586-1.3672 0.68359-3.0781 0.57031-4.4453 0-1.3672-0.68359-2.5078-1.8242-2.9609-3.3047-8.5469-27.914-33.953-46.715-63.121-46.715-29.281 0-54.574 18.801-63.121 46.715-0.45703 1.4805-1.4805 2.7344-2.9609 3.3047-1.3672 0.68359-2.9609 0.68359-4.4453 0-6.6094-2.9648-13.902-4.5586-21.422-4.5586zm224 171.36h-263.54c-35.547 0-64.488-28.941-64.488-64.488 0-26.207 15.836-49.676 39.879-59.59 3.3047-32.812 30.762-57.992 64.148-57.992 7.0625 0 14.016 1.1406 20.621 3.418 11.395-29.508 39.535-48.879 71.551-48.879s60.16 19.371 71.551 48.879c6.6094-2.2773 13.559-3.418 20.621-3.418 33.383 0 60.957 25.18 64.148 57.992 24.039 9.9141 39.879 33.383 39.879 59.59 0.11328 35.547-28.828 64.488-64.375 64.488z" fill-rule="evenodd"/>
  <path d="m558.22 328.37h-68.816c-2.9609 0-5.3555-2.3945-5.3555-5.3555 0-2.9609 2.3945-5.3555 5.3555-5.3555h68.816c15.496 0 28.141-12.648 28.141-28.141 0-11.965-7.6328-22.672-18.914-26.547-2.0508-0.68359-3.5312-2.6211-3.6445-4.8984-0.45703-9.457-5.2422-17.66-13.215-22.559-7.9766-4.8984-17.773-5.582-26.207-1.8242-1.3672 0.57031-3.0781 0.57031-4.4453 0-1.3672-0.68359-2.5078-1.8242-2.9609-3.3047-4.5586-14.926-18.004-24.84-33.613-24.84s-29.055 10.027-33.613 24.84c-0.45703 1.4805-1.4805 2.7344-2.9609 3.3047-1.3672 0.68359-2.9609 0.68359-4.4453 0-12.191-5.4688-26.773-1.3672-34.41 9.5703-1.7109 2.3945-5.1289 3.0781-7.5195 1.3672-2.3945-1.7109-3.0781-5.1289-1.3672-7.5195 9.5703-13.559 26.66-19.484 42.27-15.152 7.293-16.52 23.586-27.23 41.93-27.23 18.457 0 34.637 10.711 42.043 27.23 10.367-2.8477 21.535-1.2539 30.875 4.4453 10.141 6.2656 16.52 16.293 18.117 27.801 13.785 6.2656 22.789 20.055 22.789 35.434 0.12109 21.188-17.312 38.734-38.848 38.734z" fill-rule="evenodd"/>
  <path d="m161.26 277.32h-19.48c-21.535 0-38.965-17.434-38.965-38.965 0-15.383 9-29.168 22.789-35.434 1.4805-11.508 7.9766-21.535 18.117-27.801 9.3438-5.8125 20.508-7.293 30.875-4.4453 7.293-16.637 23.242-27.004 42.043-27.004s34.75 10.48 42.043 27.004c18.23-5.0117 38.055 3.875 45.918 21.648 1.2539 2.7344 0 5.9258-2.7344 7.1797-2.7344 1.2539-5.9258 0-7.1797-2.7344-6.2656-14.129-23.016-20.508-37.145-14.242-1.3672 0.57031-3.0781 0.57031-4.4453 0-1.3672-0.68359-2.5078-1.8242-2.9609-3.3047-5.582-18.23-21.535-24.723-33.613-24.723-12.078 0-28.027 6.4961-33.613 24.723-0.45703 1.4805-1.4805 2.7344-2.9609 3.3047-1.3672 0.68359-2.9609 0.68359-4.4453 0-8.4297-3.7617-18.344-3.0781-26.207 1.8242-7.9766 5.0117-12.875 13.215-13.215 22.559-0.11328 2.1641-1.4805 4.1016-3.6445 4.8984-11.281 3.9883-18.914 14.582-18.914 26.547 0 15.496 12.648 28.141 28.141 28.141h19.484c2.9609 0 5.3555 2.3945 5.3555 5.3555 0.11328 3.0742-2.2773 5.4688-5.2422 5.4688z" fill-rule="evenodd"/>
  <use x="70" y="577.089844" xlink:href="#u"/>
  <use x="74.179688" y="577.089844" xlink:href="#e"/>
  <use x="76.992188" y="577.089844" xlink:href="#a"/>
  <use x="80.855469" y="577.089844" xlink:href="#d"/>
  <use x="84.699219" y="577.089844" xlink:href="#c"/>
  <use x="87.421875" y="577.089844" xlink:href="#a"/>
  <use x="91.285156" y="577.089844" xlink:href="#k"/>
  <use x="97.347656" y="577.089844" xlink:href="#j"/>
  <use x="101.425781" y="577.089844" xlink:href="#i"/>
  <use x="107.121094" y="577.089844" xlink:href="#h"/>
  <use x="112.789062" y="577.089844" xlink:href="#d"/>
  <use x="116.632812" y="577.089844" xlink:href="#d"/>
  <use x="120.480469" y="577.089844" xlink:href="#f"/>
  <use x="126.519531" y="577.089844" xlink:href="#t"/>
  <use x="128.636719" y="577.089844" xlink:href="#g"/>
  <use x="132.015625" y="577.089844" xlink:href="#b"/>
  <use x="135.929688" y="577.089844" xlink:href="#f"/>
  <use x="139.984375" y="577.089844" xlink:href="#s"/>
  <use x="70" y="582.789062" xlink:href="#r"/>
  <use x="72.476562" y="582.789062" xlink:href="#e"/>
  <use x="75.289062" y="582.789062" xlink:href="#b"/>
  <use x="79.203125" y="582.789062" xlink:href="#q"/>
  <use x="87.121094" y="582.789062" xlink:href="#c"/>
  <use x="89.84375" y="582.789062" xlink:href="#p"/>
  <use x="93.898438" y="582.789062" xlink:href="#a"/>
  <use x="99.746094" y="582.789062" xlink:href="#o"/>
  <use x="104.515625" y="582.789062" xlink:href="#b"/>
  <use x="108.429688" y="582.789062" xlink:href="#n"/>
  <use x="112.484375" y="582.789062" xlink:href="#f"/>
  <use x="118.523438" y="582.789062" xlink:href="#m"/>
  <use x="122.699219" y="582.789062" xlink:href="#e"/>
  <use x="125.507812" y="582.789062" xlink:href="#b"/>
  <use x="129.421875" y="582.789062" xlink:href="#l"/>
  <use x="131.375" y="582.789062" xlink:href="#a"/>
  <use x="135.238281" y="582.789062" xlink:href="#g"/>
  <use x="138.617188" y="582.789062" xlink:href="#c"/>
 </g>
</svg>
