<?xml version="1.0" encoding="UTF-8"?>
<svg width="690pt" height="500pt" version="1.1" viewBox="0 0 690 500" xmlns="http://www.w3.org/2000/svg" xmlns:xlink="http://www.w3.org/1999/xlink">
 <g fill="white">
  <path d="m274.96 287.84v-15.68l-31.359 7.8398z"/>
  <path d="m425.04 272.16v15.68l31.359-7.8398z"/>
  <path d="m350 386.4 7.8398-31.359h-15.68z"/>
  <path d="m350 173.6-7.8398 31.359h15.68z"/>
  <path d="m399.73 235.43 7.8398-12.992-12.992 7.8398c-11.648-10.527-27.328-17.023-44.574-17.023s-32.703 6.4961-44.574 17.023l-12.992-7.8398 7.8398 12.992c-10.527 11.648-17.023 27.328-17.023 44.574 0 17.023 6.4961 32.703 17.023 44.574l-7.8398 12.992 12.992-7.8398c11.648 10.527 27.328 17.023 44.574 17.023s32.703-6.4961 44.574-17.023l12.992 7.8398-7.8398-12.992c10.527-11.648 17.023-27.328 17.023-44.574 0.003906-17.023-6.4922-32.703-17.023-44.574zm4.707 48.383c-1.793 27.105-23.742 48.832-50.625 50.625v-6.0469h-7.6172v6.0469c-27.105-1.793-48.832-23.742-50.625-50.625h6.0469v-7.6172h-5.8242c1.793-27.105 23.742-48.832 50.625-50.625v6.0469h7.6172v-6.0469c27.105 1.793 48.832 23.742 50.625 50.625h-6.0469v7.6172z"/>
  <path d="m334.54 280 15.457 40.098 15.457-40.098-15.457-40.098zm23.297 0c0 4.2578-3.5859 7.8398-7.8398 7.8398-4.2578 0-7.8398-3.5859-7.8398-7.8398 0-4.2578 3.5859-7.8398 7.8398-7.8398 4.2578 0 7.8398 3.582 7.8398 7.8398z"/>
  <use x="70" y="593.601562" xlink:href="#u"/>
  <use x="78.21875" y="593.601562" xlink:href="#b"/>
  <use x="83.742188" y="593.601562" xlink:href="#a"/>
  <use x="91.339844" y="593.601562" xlink:href="#j"/>
  <use x="98.898438" y="593.601562" xlink:href="#d"/>
  <use x="104.25" y="593.601562" xlink:href="#a"/>
  <use x="111.847656" y="593.601562" xlink:href="#i"/>
  <use x="123.761719" y="593.601562" xlink:href="#h"/>
  <use x="131.78125" y="593.601562" xlink:href="#g"/>
  <use x="142.980469" y="593.601562" xlink:href="#f"/>
  <use x="147.148438" y="593.601562" xlink:href="#b"/>
  <use x="152.671875" y="593.601562" xlink:href="#c"/>
  <use x="160.367188" y="593.601562" xlink:href="#e"/>
  <use x="168.339844" y="593.601562" xlink:href="#t"/>
  <use x="176.40625" y="593.601562" xlink:href="#s"/>
  <use x="70" y="604.800781" xlink:href="#r"/>
  <use x="74.871094" y="604.800781" xlink:href="#b"/>
  <use x="80.394531" y="604.800781" xlink:href="#c"/>
  <use x="88.089844" y="604.800781" xlink:href="#q"/>
  <use x="103.660156" y="604.800781" xlink:href="#d"/>
  <use x="109.015625" y="604.800781" xlink:href="#p"/>
  <use x="116.988281" y="604.800781" xlink:href="#a"/>
  <use x="128.484375" y="604.800781" xlink:href="#o"/>
  <use x="137.855469" y="604.800781" xlink:href="#c"/>
  <use x="145.550781" y="604.800781" xlink:href="#n"/>
  <use x="153.523438" y="604.800781" xlink:href="#e"/>
  <use x="165.398438" y="604.800781" xlink:href="#m"/>
  <use x="173.605469" y="604.800781" xlink:href="#b"/>
  <use x="179.128906" y="604.800781" xlink:href="#c"/>
  <use x="186.824219" y="604.800781" xlink:href="#l"/>
  <use x="190.664062" y="604.800781" xlink:href="#a"/>
  <use x="198.257812" y="604.800781" xlink:href="#k"/>
  <use x="204.898438" y="604.800781" xlink:href="#d"/>
 </g>
</svg>
