<?xml version="1.0" encoding="UTF-8"?>
<svg width="700pt" height="700pt" version="1.1" viewBox="0 0 700 550" xmlns="http://www.w3.org/2000/svg" xmlns:xlink="http://www.w3.org/1999/xlink">
 <g fill="white">
  <path d="m166.69 39.84c4.1641-4.25 4.0898-11.07-0.15625-15.227-4.25-4.1602-11.066-4.082-15.23 0.15625-79.648 81.352-79.648 213.72 0 295.07 2.1094 2.1523 4.9023 3.2344 7.6914 3.2344 2.7188 0 5.4375-1.0195 7.5352-3.0742 4.25-4.1602 4.3242-10.98 0.15625-15.227-71.512-73.043-71.512-191.89 0.003906-264.93z"/>
  <path d="m212.3 268.37c4.207-4.207 4.207-11.023 0-15.227-46.191-46.191-46.191-121.34-0.003906-167.53 4.207-4.207 4.207-11.023 0-15.227-4.207-4.207-11.023-4.207-15.227 0-54.586 54.582-54.582 143.4 0.003906 197.99 2.1016 2.1016 4.8594 3.1562 7.6133 3.1562 2.7539-0.003906 5.5117-1.0547 7.6133-3.1602z"/>
  <path d="m250.38 225.83c2.7539 0 5.5117-1.0508 7.6133-3.1562 4.207-4.207 4.207-11.027 0-15.227-10.168-10.168-15.77-23.688-15.77-38.074 0-14.383 5.6016-27.906 15.77-38.074 4.207-4.207 4.207-11.023 0-15.227-4.207-4.207-11.023-4.207-15.227 0-14.238 14.238-22.082 33.172-22.082 53.305 0 20.141 7.8398 39.07 22.082 53.305 2.1016 2.0977 4.8555 3.1484 7.6133 3.1484z"/>
  <path d="m548.7 24.77c-4.1641-4.25-10.98-4.3281-15.227-0.15625-4.25 4.1602-4.3242 10.973-0.15625 15.227 71.508 73.043 71.508 191.89 0 264.93-4.1641 4.25-4.0898 11.07 0.15625 15.227 2.0977 2.0547 4.8164 3.0742 7.5352 3.0742 2.793 0 5.5859-1.082 7.6914-3.2344 79.648-81.344 79.648-213.71 0-295.07z"/>
  <path d="m502.93 70.383c-4.207-4.207-11.023-4.207-15.227 0-4.207 4.207-4.207 11.023 0 15.227 46.184 46.184 46.184 121.34 0 167.53-4.207 4.207-4.207 11.023 0 15.227 2.1016 2.1016 4.8594 3.1562 7.6133 3.1562s5.5117-1.0508 7.6133-3.1562c54.582-54.582 54.582-143.4 0-197.98z"/>
  <path d="m442.01 222.68c2.1016 2.1016 4.8594 3.1562 7.6133 3.1562s5.5117-1.0508 7.6133-3.1562c14.238-14.234 22.078-33.164 22.078-53.305 0-20.133-7.8398-39.066-22.078-53.305-4.207-4.207-11.023-4.207-15.227 0-4.207 4.2031-4.207 11.023 0 15.227 10.168 10.168 15.77 23.695 15.77 38.074 0 14.387-5.6016 27.906-15.77 38.074-4.207 4.207-4.207 11.027 0 15.234z"/>
  <path d="m365.35 223.64c22.176-6.6602 38.449-27.004 38.449-51.34 0-29.723-24.121-53.848-53.848-53.848-29.617 0-53.848 24.121-53.848 53.848 0 24.352 16.363 44.699 38.527 51.352l-130.81 299.73c-2.375 5.4492 0.10938 11.801 5.5625 14.176 5.4219 2.3672 11.801-0.11719 14.176-5.5625l18.137-41.555c0.13672-0.089844 0.29688-0.12109 0.43359-0.21875l107.87-78.449 107.04 77.844c0.36328 0.26562 0.78125 0.37891 1.168 0.59375l18.238 41.785c1.7656 4.0508 5.7227 6.4688 9.875 6.4688 1.4414 0 2.9023-0.29297 4.3008-0.90625 5.4531-2.375 7.9414-8.7305 5.5625-14.176zm-15.355 159.59-42.816-42.82 42.816-98.105 42.82 98.105zm-91.332 68.336 39.258-89.949 35.543 35.547zm107.86-54.406 35.547-35.547 39.262 89.953z"/>
  <use x="70" y="721.539062" xlink:href="#o"/>
  <use x="109.515625" y="721.539062" xlink:href="#i"/>
  <use x="136.070312" y="721.539062" xlink:href="#b"/>
  <use x="172.589844" y="721.539062" xlink:href="#h"/>
  <use x="208.925781" y="721.539062" xlink:href="#a"/>
  <use x="234.667969" y="721.539062" xlink:href="#b"/>
  <use x="271.1875" y="721.539062" xlink:href="#g"/>
  <use x="328.476562" y="721.539062" xlink:href="#f"/>
  <use x="367.023438" y="721.539062" xlink:href="#e"/>
  <use x="420.867187" y="721.539062" xlink:href="#d"/>
  <use x="465.5625" y="721.539062" xlink:href="#n"/>
  <use x="484.019531" y="721.539062" xlink:href="#m"/>
  <use x="522.355469" y="721.539062" xlink:href="#c"/>
  <use x="559.347656" y="721.539062" xlink:href="#l"/>
  <use x="591.398438" y="721.539062" xlink:href="#c"/>
  <use x="628.390625" y="721.539062" xlink:href="#k"/>
  <use x="651.816406" y="721.539062" xlink:href="#a"/>
  <use x="677.558594" y="721.539062" xlink:href="#j"/>
 </g>
</svg>
