<?xml version="1.0" encoding="UTF-8"?>
<svg width="700pt" height="500pt" version="1.1" viewBox="0 0 700 500" xmlns="http://www.w3.org/2000/svg">
 <path fill="white" transform="rotate(-45, 400, 300)" d="m497.41 109.32c-2.793 0.007813-5.5664 0.51172-8.1875 1.4883l-333.48 122.86c-6.0859 2.2422-10.965 6.918-13.465 12.902-2.5 5.9883-2.3945 12.742 0.29297 18.648 2.6836 5.9062 7.707 10.426 13.859 12.477l135.83 45.277c6.9648 2.3242 12.434 7.7891 14.758 14.758l45.277 135.83h-0.003906c2.0547 6.1523 6.5742 11.176 12.48 13.859 5.9023 2.6875 12.66 2.793 18.645 0.29297 5.9883-2.5 10.664-7.3789 12.906-13.465l122.86-333.48c2.625-7.1445 1.6133-15.121-2.7227-21.383-4.332-6.2578-11.441-10.016-19.055-10.07z"/>
</svg>
