<?xml version="1.0" encoding="UTF-8"?>
<svg width="700pt" height="700pt" version="1.1" viewBox="0 0 700 550" xmlns="http://www.w3.org/2000/svg">
 <g fill="white">
  <path d="m430.84 502.06c0 31.996 25.949 57.941 57.941 57.941 31.977 0 57.922-25.945 57.922-57.941 0-57.941-57.922-115.86-57.922-115.86s-57.941 57.941-57.941 115.86z"/>
  <path d="m587.29 31.117c-41.457-41.477-108.7-41.496-150.19 0-23.223 23.223-32.965 54.488-30.184 84.801l-44.91 44.91c-7.5234-7.543-19.77-7.543-27.289 0-7.543 7.5234-7.543 19.77 0 27.309l-236.27 236.27-16.855 84.148 28.281 28.281 84.148-16.82 236.26-236.28c3.7539 3.7695 8.7188 5.6562 13.645 5.6562 4.9297 0 9.8555-1.8867 13.645-5.6562 7.5039-7.543 7.5039-19.785 0-27.309l44.895-44.93c30.316 2.7617 61.562-6.9609 84.785-30.164 41.516-41.5 41.516-108.74 0.035156-150.21zm-412.33 453.3-51.184 10.25 10.246-51.203 227.96-228 40.973 40.953z"/>
 </g>
</svg>
