<?xml version="1.0" encoding="UTF-8"?>
<svg width="700pt" height="700pt" version="1.1" viewBox="0 0 700 550" xmlns="http://www.w3.org/2000/svg" xmlns:xlink="http://www.w3.org/1999/xlink">
 <g fill="white">
  <path d="m350 448c-59.922 0-124.88-28-187.04-80.078-46.48-39.199-74.48-77.84-75.602-79.52-3.3594-5.0391-3.3594-11.762 0-16.801 1.1211-1.6797 29.68-40.32 75.602-79.52 62.16-52.082 127.12-80.082 187.04-80.082s124.88 28 187.04 80.078c46.48 39.199 74.48 77.84 75.602 79.52 3.3594 5.0391 3.3594 11.762 0 16.801-1.1211 1.6797-29.68 40.32-75.602 79.52-62.16 52.082-127.12 80.082-187.04 80.082zm-233.52-168c25.199 31.359 121.52 140 233.52 140s208.32-108.64 233.52-140c-25.199-31.359-121.52-140-233.52-140s-208.32 108.64-233.52 140z"/>
  <path d="m350 391.44c-61.602 0-111.44-49.84-111.44-111.44s49.84-111.44 111.44-111.44 111.44 49.84 111.44 111.44-49.84 111.44-111.44 111.44z"/>
  <use x="70" y="644" xlink:href="#u"/>
  <use x="90.550781" y="644" xlink:href="#d"/>
  <use x="104.359375" y="644" xlink:href="#b"/>
  <use x="123.347656" y="644" xlink:href="#c"/>
  <use x="142.242188" y="644" xlink:href="#a"/>
  <use x="155.628906" y="644" xlink:href="#b"/>
  <use x="174.617188" y="644" xlink:href="#k"/>
  <use x="204.410156" y="644" xlink:href="#j"/>
  <use x="224.453125" y="644" xlink:href="#i"/>
  <use x="252.453125" y="644" xlink:href="#h"/>
  <use x="271.578125" y="644" xlink:href="#c"/>
  <use x="290.472656" y="644" xlink:href="#g"/>
  <use x="310.40625" y="644" xlink:href="#a"/>
  <use x="323.789062" y="644" xlink:href="#c"/>
  <use x="342.6875" y="644" xlink:href="#t"/>
  <use x="359.351562" y="644" xlink:href="#a"/>
  <use x="372.734375" y="644" xlink:href="#s"/>
  <use x="382.335938" y="644" xlink:href="#f"/>
  <use x="70" y="672" xlink:href="#r"/>
  <use x="82.183594" y="672" xlink:href="#d"/>
  <use x="95.992188" y="672" xlink:href="#e"/>
  <use x="115.226562" y="672" xlink:href="#q"/>
  <use x="154.152344" y="672" xlink:href="#a"/>
  <use x="167.535156" y="672" xlink:href="#p"/>
  <use x="187.46875" y="672" xlink:href="#b"/>
  <use x="216.207031" y="672" xlink:href="#o"/>
  <use x="239.640625" y="672" xlink:href="#e"/>
  <use x="258.878906" y="672" xlink:href="#n"/>
  <use x="278.8125" y="672" xlink:href="#g"/>
  <use x="308.492188" y="672" xlink:href="#m"/>
  <use x="329.015625" y="672" xlink:href="#d"/>
  <use x="342.820312" y="672" xlink:href="#e"/>
  <use x="362.058594" y="672" xlink:href="#l"/>
  <use x="371.65625" y="672" xlink:href="#b"/>
  <use x="390.648438" y="672" xlink:href="#f"/>
  <use x="407.242188" y="672" xlink:href="#a"/>
 </g>
</svg>
