<?xml version="1.0" encoding="UTF-8"?>
<svg width="700pt" height="500pt" version="1.1" viewBox="0 0 700 500" xmlns="http://www.w3.org/2000/svg" xmlns:xlink="http://www.w3.org/1999/xlink">
 <g stroke-width="10" stroke="rgb(39, 156, 245)" fill="rgb(39, 156, 245)">
  <path d="m435.3 166.61c-2.5547 6.6016-9.9609 9.8789-16.566 7.3242-6.6016-2.5547-9.8789-9.9609-7.3242-16.566 5.3438-13.809 14.75-25.586 26.781-33.82 11.691-8.0312 25.84-12.719 41.043-12.719 20.078 0 38.27 8.1484 51.426 21.301 13.156 13.156 21.301 31.348 21.301 51.426s-8.1484 38.27-21.301 51.426c-13.156 13.156-31.348 21.301-51.426 21.301h-160.05c-7.0898 0-12.852-5.7617-12.852-12.852 0-7.0898 5.7617-12.852 12.852-12.852h160.05c12.988 0 24.746-5.2578 33.266-13.777 8.5-8.5 13.777-20.262 13.777-33.266 0-12.988-5.2578-24.746-13.777-33.266-8.5195-8.5195-20.277-13.777-33.266-13.777-9.8945 0-19.051 3.0234-26.594 8.1992-7.7969 5.3438-13.895 12.953-17.336 21.875zm48.316 236.01c-2.5547-6.6016 0.73828-14.012 7.3398-16.566 6.6016-2.5547 14.012 0.73828 16.566 7.3242 3.4453 8.9219 9.5586 16.531 17.336 21.875 7.543 5.1758 16.699 8.1992 26.578 8.1992 12.988 0 24.746-5.2578 33.266-13.777 8.5-8.5 13.777-20.262 13.777-33.266 0-12.988-5.2578-24.746-13.777-33.266s-20.277-13.777-33.266-13.777h-84.539c-7.0898 0-12.852-5.7617-12.852-12.852 0-7.0898 5.7617-12.852 12.852-12.852h84.539c20.094 0 38.27 8.1484 51.426 21.301 13.156 13.156 21.301 31.348 21.301 51.426 0 20.094-8.1484 38.27-21.301 51.426-13.156 13.156-31.348 21.301-51.426 21.301-15.203 0-29.332-4.7031-41.043-12.719-12.012-8.25-21.438-20.008-26.781-33.82zm-184.05 0c-2.5547-6.6016 0.72266-14.012 7.3242-16.566 6.6016-2.5547 14.012 0.73828 16.566 7.3242 3.4453 8.9219 9.5586 16.531 17.336 21.875 7.543 5.1758 16.699 8.1992 26.594 8.1992 12.988 0 24.746-5.2578 33.266-13.777 8.5-8.5 13.777-20.262 13.777-33.266 0-12.988-5.2578-24.746-13.777-33.266-8.5195-8.5-20.277-13.777-33.266-13.777h-278.73c-7.0898 0-12.852-5.7617-12.852-12.852 0-7.0898 5.7617-12.852 12.852-12.852h278.73c20.078 0 38.27 8.1484 51.426 21.301 13.156 13.156 21.301 31.348 21.301 51.426 0 20.094-8.1484 38.27-21.301 51.426-13.156 13.156-31.348 21.301-51.426 21.301-15.203 0-29.352-4.7031-41.043-12.719-12.012-8.25-21.438-20.008-26.781-33.82zm-54.383-172.02c7.1055 0 12.852 5.7617 12.852 12.852 0 7.0898-5.7617 12.852-12.852 12.852h-44.688c-7.0898 0-12.852-5.7617-12.852-12.852 0-7.0898 5.7617-12.852 12.852-12.852z"/>
  <use x="70" y="585.199219" xlink:href="#x"/>
  <use x="76.164062" y="585.199219" xlink:href="#c"/>
  <use x="80.308594" y="585.199219" xlink:href="#a"/>
  <use x="86.003906" y="585.199219" xlink:href="#j"/>
  <use x="91.671875" y="585.199219" xlink:href="#b"/>
  <use x="95.6875" y="585.199219" xlink:href="#a"/>
  <use x="101.386719" y="585.199219" xlink:href="#i"/>
  <use x="110.324219" y="585.199219" xlink:href="#h"/>
  <use x="116.335938" y="585.199219" xlink:href="#g"/>
  <use x="124.734375" y="585.199219" xlink:href="#f"/>
  <use x="131.136719" y="585.199219" xlink:href="#w"/>
  <use x="137.960938" y="585.199219" xlink:href="#v"/>
  <use x="144.007812" y="585.199219" xlink:href="#u"/>
  <use x="150.511719" y="585.199219" xlink:href="#e"/>
  <use x="153.636719" y="585.199219" xlink:href="#t"/>
  <use x="160.105469" y="585.199219" xlink:href="#e"/>
  <use x="70" y="593.601562" xlink:href="#s"/>
  <use x="73.65625" y="593.601562" xlink:href="#c"/>
  <use x="77.796875" y="593.601562" xlink:href="#d"/>
  <use x="83.566406" y="593.601562" xlink:href="#r"/>
  <use x="95.246094" y="593.601562" xlink:href="#b"/>
  <use x="99.261719" y="593.601562" xlink:href="#q"/>
  <use x="105.242188" y="593.601562" xlink:href="#a"/>
  <use x="113.863281" y="593.601562" xlink:href="#p"/>
  <use x="120.894531" y="593.601562" xlink:href="#d"/>
  <use x="126.664062" y="593.601562" xlink:href="#o"/>
  <use x="132.644531" y="593.601562" xlink:href="#n"/>
  <use x="141.546875" y="593.601562" xlink:href="#m"/>
  <use x="147.703125" y="593.601562" xlink:href="#c"/>
  <use x="151.847656" y="593.601562" xlink:href="#d"/>
  <use x="157.617187" y="593.601562" xlink:href="#l"/>
  <use x="160.496094" y="593.601562" xlink:href="#a"/>
  <use x="166.195312" y="593.601562" xlink:href="#k"/>
  <use x="171.175781" y="593.601562" xlink:href="#b"/>
 </g>
</svg>
