<?xml version="1.0" encoding="UTF-8"?>
<svg width="700pt" height="700pt" version="1.1" viewBox="0 0 700 550" xmlns="http://www.w3.org/2000/svg" xmlns:xlink="http://www.w3.org/1999/xlink">
 <g fill="white">
  <path d="m396.39 516.25h-101.33c-44.977 0-85.727-28.18-101.4-70.098-7.2148-15.633-11.27-33.25-11.695-51.484l-2.5781-112.73c-0.17188-7.4219 5.7461-13.582 13.227-13.754h0.30469c7.332 0 13.359 5.8203 13.531 13.148l2.5781 112.73c0.33203 14.555 3.5664 28.625 9.6172 41.812 12.129 32.344 42.691 53.465 76.41 53.465h101.33c34.062 0 64.719-21.398 76.293-53.27l14.574-40.094c4.2031-11.008 6.3008-22.266 6.3008-33.629 0-25.906-10.238-49.105-28.832-65.316-14.363-12.531-34.141-19.43-55.691-19.43h-76.543c-7.4805 0-13.531-6.0156-13.531-13.453 0-7.4336 6.0508-13.453 13.531-13.453h76.543c28.117 0 54.238 9.2734 73.531 26.102 24.539 21.41 38.055 51.797 38.055 85.559 0 14.648-2.6836 29.109-7.9922 42.984l-14.496 39.883c-15.434 42.48-56.312 71.027-101.74 71.027z"/>
  <path d="m432.56 382.53c-5.3516 0-10.41-3.1797-12.539-8.4062l-2.6289-6.4648c-6.9375-15.266-17.453-15.266-20.902-15.266h-45.293c-5.168 0-10.094-0.78906-14.652-2.3398-7.0703-2.418-10.836-10.062-8.418-17.09 2.4297-7.0273 10.121-10.734 17.191-8.3672 1.7305 0.58984 3.7109 0.89453 5.8789 0.89453h45.293c19.992 0 36.68 11.52 45.781 31.594l2.8281 6.9492c2.8008 6.8828-0.54297 14.727-7.4648 17.512-1.6641 0.66797-3.3828 0.98438-5.0742 0.98438z"/>
  <path d="m237.62 376.96c-9.8047 0-19.355-2.9961-27.574-8.7617-10.848-7.6055-18.051-19.062-20.281-32.238l-9.6836-57.461c-4.5039-26.746 13.266-52.27 39.625-56.906 12.645-2.2578 25.434 0.61719 36.004 8.0391 10.848 7.6211 18.051 19.062 20.27 32.25l9.6836 57.445c4.5039 26.734-13.277 52.258-39.641 56.895h0.011719c-2.8125 0.50391-5.6289 0.73828-8.4141 0.73828zm-9.5664-129.2c-1.2031 0-2.418 0.10547-3.6211 0.31641-11.812 2.0742-19.727 13.742-17.664 25.984l9.6836 57.445c1.0156 6.043 4.2812 11.27 9.1836 14.715 4.6367 3.2305 10.199 4.5078 15.672 3.5195h0.011718c11.801-2.0742 19.715-13.727 17.652-25.973l-9.6836-57.445c-1.0156-6.043-4.2812-11.27-9.1836-14.715-3.6094-2.5195-7.7852-3.8477-12.051-3.8477z"/>
  <path d="m340.94 350.78c-1.082 0-2.168-0.13281-3.2617-0.39453-20.719-5.0977-36.574-22.305-40.367-43.824l-2.1133-12.125c-1.9688-10.879 1.0039-22.07 8.1797-30.594 7.0312-8.3555 17.258-13.137 28.062-13.137 7.4805 0 14.059 6.0156 14.059 13.453 0 7.4336-5.5234 13.453-13 13.453-4.8633 0-7.2656 2.1797-8.3633 3.4961-2.0078 2.3906-2.8555 5.5586-2.2852 8.6562l2.1289 12.176c1.9414 11.023 9.8711 19.797 20.203 22.332 7.2539 1.7852 11.68 9.0781 9.8828 16.289-1.5234 6.1211-7.0469 10.219-13.125 10.219z"/>
  <path d="m307.33 376.29c-10.109 0-19.832-3.1016-28.129-9.0117-10.688-7.6211-17.73-19.035-19.832-32.121l-13.688-80.883c-4.3477-26.629 13.438-52.125 39.613-56.895 2.9609-0.43359 5.7891-0.76172 8.2305-0.76172 23.57 0 43.801 17.223 48.082 40.945l4.2266 24.289c0.6875 3.9141-0.41016 7.9219-2.9844 10.957-2.5625 3.0469-6.3555 4.793-10.348 4.793-4.8633 0-7.2656 2.1797-8.3633 3.4961-2.0078 2.3906-2.8555 5.5586-2.2852 8.6562l2.1289 12.176c1.9414 11.023 9.8711 19.797 20.203 22.332 3.5664 0.87891 6.6328 3.1641 8.4688 6.332 1.8359 3.1797 2.3008 6.9492 1.2812 10.469-5.168 17.723-20.176 31.266-38.25 34.523-2.793 0.46484-5.5938 0.70312-8.3555 0.70312zm-13.809-152.77c-1.2305 0-2.6289 0.22266-3.8594 0.40625-11.297 2.0625-19.277 13.754-17.281 25.957l13.688 80.91c0.97656 6.0547 4.1211 11.219 8.9062 14.621 4.6523 3.3242 10.281 4.6523 16.039 3.6641 4.0547-0.72266 7.7969-2.6914 10.797-5.5156-12.672-8.0938-21.75-21.414-24.496-37.008l-2.1133-12.125c-1.9688-10.879 1.0039-22.07 8.1797-30.594 3.7539-4.4531 8.4023-7.8945 13.57-10.129l-1.9961-11.469c-1.957-10.809-10.969-18.719-21.434-18.719z"/>
  <path d="m478.39 301.19c-5.4961 0-10.676-3.3633-12.699-8.7891l-75.469-204.9c-5.3789-11.992-18.578-18.156-30.84-14.215-6.6719 2.1289-12.102 6.8438-15.273 13.281-3.3438 6.7383-3.7656 14.359-1.2031 21.453l26.676 73.695 26.043 66.707c2.6953 6.9219-0.75391 14.715-7.7305 17.406-6.9219 2.6523-14.797-0.75-17.508-7.6836l-26.148-67.012-26.797-74c-4.9961-13.82-4.1367-29.281 2.3789-42.445 6.4492-13.031 17.547-22.633 31.262-27.023 25.434-8.0938 52.84 4.2969 63.844 28.875l2.2852 5.0977 73.875 201.44c2.5898 6.9766-1.0039 14.715-8.0078 17.289-1.543 0.56641-3.125 0.82812-4.6875 0.82812z"/>
  <path d="m330.86 276.2c-1.7852 0-3.582-0.33984-5.3242-1.0898-6.8711-2.918-10.055-10.824-7.1094-17.656l27.641-64.227c2.9336-6.832 10.914-9.9961 17.758-7.0664 6.8711 2.918 10.055 10.824 7.1094 17.656l-27.641 64.227c-2.1914 5.0938-7.1875 8.1562-12.434 8.1562z"/>
  <path d="m443.83 198.08h-0.19922c-5.457-0.078125-10.332-3.4141-12.355-8.4453l-41.262-102.31c-1.4648-3.6406-1.2695-7.7227 0.54297-11.207l2.1016-4.0195c12.234-23.355 39.918-34.207 64.453-25.184 13.77 5.043 24.578 15.332 30.418 28.953 5.8945 13.715 5.8281 29.414-0.16016 43.062l-31.129 71.07c-2.1562 4.9141-7.0352 8.0781-12.41 8.0781zm-26.375-114.97 26.887 66.656 18.207-41.578c3.0273-6.8984 3.0664-14.832 0.09375-21.766-2.8945-6.7266-8.1797-11.797-14.891-14.254-11.453-4.2422-23.941 0.39453-30.297 10.941z"/>
  <path d="m344.57 453.71c-5.8398 0-11.23-3.7852-12.977-9.6172-8.7734-29.375-5.9609-60.703 7.5312-83.812 10.281-17.617 25.816-29.281 44.926-33.734 7.2422-1.668 14.562 2.7852 16.266 10.023 1.7031 7.2383-2.8125 14.477-10.082 16.172-11.84 2.7578-21.152 9.8398-27.707 21.047-9.8164 16.828-11.68 40.238-4.9805 62.637 2.1289 7.1328-1.957 14.621-9.1172 16.734-1.2969 0.37891-2.5898 0.55078-3.8594 0.55078z"/>
  <use x="70" y="691.25" xlink:href="#l"/>
  <use x="102.109375" y="691.25" xlink:href="#f"/>
  <use x="123.683594" y="691.25" xlink:href="#e"/>
  <use x="153.355469" y="691.25" xlink:href="#b"/>
  <use x="182.878906" y="691.25" xlink:href="#d"/>
  <use x="203.792969" y="691.25" xlink:href="#e"/>
  <use x="233.464844" y="691.25" xlink:href="#j"/>
  <use x="280.011719" y="691.25" xlink:href="#a"/>
  <use x="311.328125" y="691.25" xlink:href="#i"/>
  <use x="355.078125" y="691.25" xlink:href="#a"/>
  <use x="386.398438" y="691.25" xlink:href="#b"/>
  <use x="415.917969" y="691.25" xlink:href="#h"/>
  <use x="441.960938" y="691.25" xlink:href="#c"/>
  <use x="456.957031" y="691.25" xlink:href="#d"/>
  <use x="477.871094" y="691.25" xlink:href="#g"/>
  <use x="524.25" y="691.25" xlink:href="#c"/>
  <use x="539.246094" y="691.25" xlink:href="#a"/>
  <use x="570.5625" y="691.25" xlink:href="#f"/>
  <use x="592.136719" y="691.25" xlink:href="#b"/>
  <use x="621.660156" y="691.25" xlink:href="#g"/>
  <use x="652.804688" y="691.25" xlink:href="#c"/>
  <use x="667.804688" y="691.25" xlink:href="#k"/>
 </g>
</svg>
