<?xml version="1.0" encoding="UTF-8"?>
<svg width="700pt" height="700pt" version="1.1" viewBox="0 0 700 550" xmlns="http://www.w3.org/2000/svg" xmlns:xlink="http://www.w3.org/1999/xlink">
 <g fill="white">
  <path d="m446.25 393.75h-87.5c-4.832 0-8.75 3.918-8.75 8.75s3.918 8.75 8.75 8.75h87.5c4.832 0 8.75-3.918 8.75-8.75s-3.918-8.75-8.75-8.75z"/>
  <path d="m280 402.5c0-2.3203-0.92188-4.5469-2.5625-6.1875s-3.8672-2.5625-6.1875-2.5625h-70c-4.832 0-8.75 3.918-8.75 8.75s3.918 8.75 8.75 8.75h70c2.3203 0 4.5469-0.92188 6.1875-2.5625s2.5625-3.8672 2.5625-6.1875z"/>
  <path d="m323.75 411.25c4.832 0 8.75-3.918 8.75-8.75s-3.918-8.75-8.75-8.75h-17.5c-4.832 0-8.75 3.918-8.75 8.75s3.918 8.75 8.75 8.75z"/>
  <path d="m236.25 463.75h105c4.832 0 8.75-3.918 8.75-8.75s-3.918-8.75-8.75-8.75h-105c-4.832 0-8.75 3.918-8.75 8.75s3.918 8.75 8.75 8.75z"/>
  <path d="m437.5 455c0 2.3203 0.92188 4.5469 2.5625 6.1875s3.8672 2.5625 6.1875 2.5625h35c4.832 0 8.75-3.918 8.75-8.75s-3.918-8.75-8.75-8.75h-35c-4.832 0-8.75 3.918-8.75 8.75z"/>
  <path d="m411.25 446.25h-35c-4.832 0-8.75 3.918-8.75 8.75s3.918 8.75 8.75 8.75h35c4.832 0 8.75-3.918 8.75-8.75s-3.918-8.75-8.75-8.75z"/>
  <path d="m507.5 201.25c-5.8203 0.007812-11.621 0.59375-17.324 1.75-2.2773 0.45703-4.6406-0.003906-6.5742-1.2891-1.9336-1.2852-3.2773-3.2852-3.7344-5.5625-3.2266-15.828-11.812-30.059-24.316-40.289-12.5-10.227-28.148-15.832-44.301-15.859-10.098 0.003906-20.074 2.2109-29.234 6.4648-2.2109 1.0195-4.75 1.0742-7 0.14062-2.2539-0.92969-4.0156-2.7539-4.8633-5.0391-11.723-32.289-39.781-55.867-73.605-61.859-33.824-5.9922-68.273 6.5156-90.375 32.812-22.098 26.297-28.492 62.383-16.77 94.672 0.94141 2.6367 0.55859 5.5664-1.0234 7.8789-1.582 2.3086-4.1758 3.7227-6.9727 3.8008-28.102 0.4375-53.836 15.824-67.52 40.375-13.684 24.547-13.238 54.531 1.1719 78.66 14.406 24.129 40.59 38.746 68.691 38.344h323.75c31.262 0 60.148-16.676 75.777-43.75s15.629-60.426 0-87.5-44.516-43.75-75.777-43.75zm-201.25 87.5h17.5c4.832 0 8.75 3.918 8.75 8.75s-3.918 8.75-8.75 8.75h-17.5c-4.832 0-8.75-3.918-8.75-8.75s3.918-8.75 8.75-8.75zm-113.75 8.75c0-4.832 3.918-8.75 8.75-8.75h70c4.832 0 8.75 3.918 8.75 8.75s-3.918 8.75-8.75 8.75h-70c-4.832 0-8.75-3.918-8.75-8.75zm148.75 61.25h-105c-4.832 0-8.75-3.918-8.75-8.75s3.918-8.75 8.75-8.75h105c4.832 0 8.75 3.918 8.75 8.75s-3.918 8.75-8.75 8.75zm8.75-61.25c0-4.832 3.918-8.75 8.75-8.75h87.5c4.832 0 8.75 3.918 8.75 8.75s-3.918 8.75-8.75 8.75h-87.5c-4.832 0-8.75-3.918-8.75-8.75zm61.25 61.25h-35c-4.832 0-8.75-3.918-8.75-8.75s3.918-8.75 8.75-8.75h35c4.832 0 8.75 3.918 8.75 8.75s-3.918 8.75-8.75 8.75zm70 0h-35c-4.832 0-8.75-3.918-8.75-8.75s3.918-8.75 8.75-8.75h35c4.832 0 8.75 3.918 8.75 8.75s-3.918 8.75-8.75 8.75z"/>
  <use x="70" y="691.25" xlink:href="#m"/>
  <use x="102.109375" y="691.25" xlink:href="#d"/>
  <use x="123.683594" y="691.25" xlink:href="#c"/>
  <use x="153.355469" y="691.25" xlink:href="#b"/>
  <use x="182.878906" y="691.25" xlink:href="#h"/>
  <use x="203.792969" y="691.25" xlink:href="#c"/>
  <use x="233.464844" y="691.25" xlink:href="#g"/>
  <use x="280.011719" y="691.25" xlink:href="#f"/>
  <use x="311.328125" y="691.25" xlink:href="#e"/>
  <use x="355.078125" y="691.25" xlink:href="#a"/>
  <use x="370.078125" y="691.25" xlink:href="#l"/>
  <use x="396.011719" y="691.25" xlink:href="#k"/>
  <use x="426.066406" y="691.25" xlink:href="#j"/>
  <use x="457.214844" y="691.25" xlink:href="#a"/>
  <use x="472.210938" y="691.25" xlink:href="#i"/>
  <use x="500.429688" y="691.25" xlink:href="#b"/>
  <use x="529.953125" y="691.25" xlink:href="#d"/>
 </g>
</svg>
