<?xml version="1.0" encoding="UTF-8"?>
<svg width="700pt" height="500pt" version="1.1" viewBox="0 0 700 500" xmlns="http://www.w3.org/2000/svg" xmlns:xlink="http://www.w3.org/1999/xlink">
 <g stroke-width="5" stroke="white" fill="white">
  <path d="m577.5 70c-28.855 0-52.5 23.645-52.5 52.5 0 13.199 5.1094 25.176 13.238 34.43l-91.922 127.29c-6.3047-2.6992-13.223-4.2148-20.484-4.2148-13.57 0-25.879 5.3594-35.227 13.898l-67.812-46.914c2.4453-6.0469 3.875-12.598 3.875-19.484 0-28.855-23.645-52.5-52.5-52.5-28.859 0-52.5 23.645-52.5 52.5 0 13.199 5.1055 25.176 13.238 34.43l-91.922 127.29c-6.3086-2.6992-13.223-4.2148-20.484-4.2148-28.855 0-52.5 23.645-52.5 52.5s23.645 52.5 52.5 52.5 52.5-23.645 52.5-52.5c0-13.199-5.1094-25.176-13.238-34.43l91.918-127.29c6.3086 2.6992 13.227 4.2148 20.488 4.2148 13.582 0 25.898-5.3672 35.25-13.922l67.789 46.938c-2.4453 6.0469-3.875 12.598-3.875 19.484 0 28.855 23.645 52.5 52.5 52.5 28.859 0 52.5-23.645 52.5-52.5 0-13.199-5.1055-25.176-13.238-34.43l91.922-127.29c6.3086 2.6992 13.223 4.2148 20.484 4.2148 28.855 0 52.5-23.645 52.5-52.5s-23.645-52.5-52.5-52.5zm0 23.332c16.246 0 29.168 12.922 29.168 29.168s-12.922 29.168-29.168 29.168-29.168-12.922-29.168-29.168 12.922-29.168 29.168-29.168zm-303.33 105c16.246 0 29.164 12.922 29.164 29.168s-12.918 29.168-29.164 29.168c-16.246 0-29.168-12.922-29.168-29.168s12.922-29.168 29.168-29.168zm151.66 105c16.246 0 29.168 12.922 29.168 29.168s-12.922 29.168-29.168 29.168c-16.246 0-29.164-12.922-29.164-29.168s12.918-29.168 29.164-29.168zm-303.33 105c16.246 0 29.168 12.922 29.168 29.168s-12.922 29.168-29.168 29.168-29.168-12.922-29.168-29.168 12.922-29.168 29.168-29.168z" fill-rule="evenodd"/>
  <use x="70" y="735" xlink:href="#a"/>
  <use x="220.503906" y="735" xlink:href="#h"/>
  <use x="287.953125" y="735" xlink:href="#g"/>
  <use x="350.015625" y="735" xlink:href="#f"/>
  <use x="450.105469" y="735" xlink:href="#e"/>
  <use x="471.8125" y="735" xlink:href="#a"/>
  <use x="514.621094" y="735" xlink:href="#d"/>
  <use x="564.210937" y="735" xlink:href="#c"/>
  <use x="613.03125" y="735" xlink:href="#a"/>
  <use x="655.839844" y="735" xlink:href="#b"/>
 </g>
</svg>
