<?xml version="1.0" encoding="UTF-8"?>
<svg width="700pt" height="500pt" version="1.1" viewBox="0 0 700 500" xmlns="http://www.w3.org/2000/svg" xmlns:xlink="http://www.w3.org/1999/xlink">
 <g stroke-width="15" stroke="white" fill="white">
  <path d="m364.59 95.203c-82.789 0-153.22 53.156-177.8 127.05l-17.324-30.801c-2.1914-4.043-6.6328-6.332-11.199-5.7773-3.7656 0.42578-7.0625 2.7305-8.7578 6.1211-1.6953 3.3906-1.5586 7.4102 0.35938 10.68l30.801 54.949c2.9219 5.2734 9.5 7.2852 14.875 4.5508l54.773-28c2.7734-1.2695 4.9062-3.6172 5.9102-6.4961 1.0039-2.8828 0.78906-6.0469-0.59375-8.7656-1.3828-2.7188-3.8164-4.7539-6.7344-5.6406-2.918-0.88281-6.0703-0.53906-8.7305 0.95312l-32.551 16.625c21.184-65.445 83.312-113.05 156.98-113.05 91.191 0 164.68 72.656 164.68 162.4s-73.484 162.4-164.68 162.4c-78.016 0-143.13-53.473-160.3-124.95v0.003906c-0.40625-3.1445-2.1211-5.9688-4.7266-7.7773-2.6016-1.8086-5.8477-2.4258-8.9375-1.7031-3.0859 0.71875-5.7188 2.7148-7.2539 5.4883-1.5312 2.7773-1.8164 6.0703-0.78516 9.0664 19.582 81.512 93.738 142.27 182 142.27 103.14 0 187.07-82.789 187.07-184.8s-83.941-184.8-187.07-184.8zm1.0508 83.824c-5.7695 0.63281-10.098 5.5703-9.9727 11.375v89.602-0.003906c-0.003906 3.4062 1.543 6.625 4.1992 8.75l56 44.801c4.832 3.8672 11.883 3.082 15.75-1.75 3.8672-4.832 3.082-11.883-1.75-15.75l-51.801-41.477v-84.176 0.003906c0.070313-3.2266-1.2539-6.3242-3.6367-8.5039-2.3789-2.1797-5.582-3.2266-8.7891-2.8711z"/>
  <use x="70" y="644" xlink:href="#u"/>
  <use x="90.550781" y="644" xlink:href="#d"/>
  <use x="104.359375" y="644" xlink:href="#b"/>
  <use x="123.347656" y="644" xlink:href="#k"/>
  <use x="142.242188" y="644" xlink:href="#c"/>
  <use x="155.628906" y="644" xlink:href="#b"/>
  <use x="174.617188" y="644" xlink:href="#j"/>
  <use x="204.410156" y="644" xlink:href="#i"/>
  <use x="224.453125" y="644" xlink:href="#h"/>
  <use x="252.453125" y="644" xlink:href="#g"/>
  <use x="274.011719" y="644" xlink:href="#a"/>
  <use x="293.25" y="644" xlink:href="#e"/>
  <use x="309.84375" y="644" xlink:href="#t"/>
  <use x="328.46875" y="644" xlink:href="#s"/>
  <use x="338.0625" y="644" xlink:href="#e"/>
  <use x="354.664062" y="644" xlink:href="#a"/>
  <use x="373.898438" y="644" xlink:href="#f"/>
  <use x="70" y="672" xlink:href="#r"/>
  <use x="82.183594" y="672" xlink:href="#d"/>
  <use x="95.992188" y="672" xlink:href="#a"/>
  <use x="115.226562" y="672" xlink:href="#q"/>
  <use x="154.152344" y="672" xlink:href="#c"/>
  <use x="167.535156" y="672" xlink:href="#p"/>
  <use x="187.46875" y="672" xlink:href="#b"/>
  <use x="216.207031" y="672" xlink:href="#o"/>
  <use x="239.640625" y="672" xlink:href="#a"/>
  <use x="258.878906" y="672" xlink:href="#n"/>
  <use x="278.8125" y="672" xlink:href="#f"/>
  <use x="308.492188" y="672" xlink:href="#m"/>
  <use x="329.015625" y="672" xlink:href="#d"/>
  <use x="342.820312" y="672" xlink:href="#a"/>
  <use x="362.058594" y="672" xlink:href="#l"/>
  <use x="371.65625" y="672" xlink:href="#b"/>
  <use x="390.648438" y="672" xlink:href="#e"/>
  <use x="07.242188" y="672" xlink:href="#c"/>
 </g>
</svg>
