<?xml version="1.0" encoding="UTF-8"?>
<svg width="700pt" height="700pt" version="1.1" viewBox="0 0 700 550" xmlns="http://www.w3.org/2000/svg" xmlns:xlink="http://www.w3.org/1999/xlink">
 <g fill="white">
  <path d="m352.34 72.594c20.18 21.984 39.539 44.867 57.582 68.656 15.176 20.016 29.367 40.848 42.078 62.504 19.195 32.812 35.848 69.23 43.473 106.64 2.9531 14.52 4.5117 29.367 4.1836 44.211-0.32812 12.879-2.1328 25.676-5.7422 38.062-6.4805 22.23-18.375 41.668-35.273 57.418-29.121 26.988-69.395 39.785-108.69 39.785s-79.566-12.797-108.69-39.785c-16.898-15.75-28.793-35.273-35.273-57.418-3.6094-12.387-5.4141-25.184-5.7422-38.062-0.32812-14.848 1.2305-29.695 4.1836-44.211 7.5469-37.406 24.199-73.824 43.473-106.64 12.715-21.656 26.988-42.488 42.078-62.504 18.047-23.871 37.406-46.672 57.582-68.738l2.3789-2.625 2.3789 2.625zm28.711 194.82h11.895l-64.391 124.43h-12.141l64.555-124.43zm-86.539 30.352c0 7.3828 1.1484 16.16 6.3164 21.902 4.1836 4.6758 9.1875 6.8906 15.422 6.8906 6.3164 0 11.484-2.3789 15.75-7.0547 5.168-5.6602 6.5625-13.535 6.5625-20.836 0-7.3828-1.3125-15.504-6.4805-21.164-4.3477-4.6758-9.5977-6.8906-15.996-6.8906-6.5625 0-11.977 2.1328-15.832 7.4648-4.1836 5.8242-5.7422 12.551-5.7422 19.605zm76.285 61.93c0 7.3828 1.1484 16.16 6.3164 21.902 4.1016 4.6758 9.1875 6.8906 15.422 6.8906 6.3984 0 11.566-2.2969 15.832-7.0547 5.0859-5.6602 6.5625-13.535 6.5625-20.918 0-7.3008-1.3125-15.504-6.3984-21.082-4.3477-4.6758-9.6797-6.8906-15.996-6.8906-6.5625 0-11.977 2.0508-15.914 7.4648-4.1836 5.7422-5.7422 12.633-5.7422 19.605z" fill-rule="evenodd"/>
  <use x="70" y="561.230469" xlink:href="#v"/>
  <use x="70.300781" y="561.230469" xlink:href="#c"/>
  <use x="70.503906" y="561.230469" xlink:href="#a"/>
  <use x="70.78125" y="561.230469" xlink:href="#j"/>
  <use x="71.058594" y="561.230469" xlink:href="#b"/>
  <use x="71.253906" y="561.230469" xlink:href="#a"/>
  <use x="71.53125" y="561.230469" xlink:href="#i"/>
  <use x="71.96875" y="561.230469" xlink:href="#h"/>
  <use x="72.261719" y="561.230469" xlink:href="#g"/>
  <use x="72.671875" y="561.230469" xlink:href="#e"/>
  <use x="72.824219" y="561.230469" xlink:href="#u"/>
  <use x="73.121094" y="561.230469" xlink:href="#e"/>
  <use x="73.273438" y="561.230469" xlink:href="#t"/>
  <use x="73.59375" y="561.230469" xlink:href="#s"/>
  <use x="73.941406" y="561.230469" xlink:href="#f"/>
  <use x="70" y="561.640625" xlink:href="#r"/>
  <use x="70.179688" y="561.640625" xlink:href="#c"/>
  <use x="70.378906" y="561.640625" xlink:href="#d"/>
  <use x="70.664062" y="561.640625" xlink:href="#q"/>
  <use x="71.234375" y="561.640625" xlink:href="#b"/>
  <use x="71.429688" y="561.640625" xlink:href="#p"/>
  <use x="71.71875" y="561.640625" xlink:href="#a"/>
  <use x="72.140625" y="561.640625" xlink:href="#f"/>
  <use x="72.484375" y="561.640625" xlink:href="#d"/>
  <use x="72.765625" y="561.640625" xlink:href="#o"/>
  <use x="73.058594" y="561.640625" xlink:href="#n"/>
  <use x="73.492188" y="561.640625" xlink:href="#m"/>
  <use x="73.792969" y="561.640625" xlink:href="#c"/>
  <use x="73.996094" y="561.640625" xlink:href="#d"/>
  <use x="74.277344" y="561.640625" xlink:href="#l"/>
  <use x="74.417969" y="561.640625" xlink:href="#a"/>
  <use x="74.695312" y="561.640625" xlink:href="#k"/>
  <use x="74.941406" y="561.640625" xlink:href="#b"/>
 </g>
</svg>
