<?xml version="1.0" encoding="UTF-8"?>
<svg width="700pt" height="700pt" version="1.1" viewBox="0 0 700 550" xmlns="http://www.w3.org/2000/svg" xmlns:xlink="http://www.w3.org/1999/xlink">
 <g fill="white">
  <path d="m462 392c-34.75 34.797-83.703 51.457-132.46 45.078-48.762-6.3789-91.781-35.07-116.41-77.637-24.629-42.562-28.062-94.164-9.2891-139.61 18.773-45.453 57.613-79.594 105.1-92.375 47.484-12.781 98.215-2.7539 137.27 27.133 39.055 29.887 61.984 76.238 62.055 125.41 0.21094 42.023-16.453 82.375-46.258 112zm15.23-238.79c-29.359-29.5-68.043-47.906-109.46-52.07-41.414-4.1641-82.992 6.1641-117.64 29.23-34.645 23.062-60.219 57.434-72.355 97.246-12.141 39.812-10.09 82.605 5.7969 121.07 15.891 38.473 44.633 70.238 81.324 89.887 36.695 19.645 79.066 25.953 119.89 17.848 40.824-8.1055 77.574-30.121 103.98-62.297 26.406-32.172 40.832-72.512 40.82-114.13-0.066406-47.621-18.969-93.277-52.586-127.01z"/>
  <path d="m350.28 193.59c-16.555-0.68359-32.469 6.4258-43.008 19.207-6.8477 8.4805-11.004 18.816-11.93 29.68-0.29297 5.9375 4.2812 10.988 10.219 11.285 5.9414 0.29297 10.992-4.2852 11.285-10.223 0.70312-6.3047 3.2109-12.277 7.2227-17.191 6.4766-7.6641 16.195-11.816 26.211-11.199 13.16 0 22.398 3.6406 27.105 10.863h-0.003907c2.6992 4.3359 4.1367 9.3398 4.1445 14.449 0 7.1133-6.2734 12.711-16.465 21.281v-0.003906c-4.9453 3.918-9.6406 8.1445-14.055 12.656-14.223 15.344-15.289 24.527-15.289 34.945v0.89453c-0.21484 2.9961 0.82422 5.9453 2.8672 8.1406 2.0469 2.1992 4.9141 3.4453 7.9141 3.4453s5.8672-1.2461 7.9141-3.4453c2.043-2.1953 3.082-5.1445 2.8672-8.1406v-0.95312c0-6.2148 0-9.9102 9.5195-20.273v0.003906c3.8008-3.9766 7.8398-7.7148 12.094-11.199 11.199-9.4648 24.137-20.273 24.137-37.742v-0.003907c0.03125-9.3789-2.6719-18.562-7.7852-26.43-11.199-16.801-30.688-20.383-44.801-20.383z"/>
  <path d="m346.47 336.84c-4.1484 0-8.125 1.6484-11.055 4.582-2.9297 2.9336-4.5742 6.9141-4.5703 11.062 0.003906 4.1445 1.6602 8.1211 4.5977 11.047s6.918 4.5664 11.062 4.5586c4.1484-0.011719 8.1211-1.6719 11.047-4.6094 2.9219-2.9414 4.5547-6.9258 4.543-11.074-0.015625-4.1328-1.668-8.0938-4.5977-11.012s-6.8945-4.5547-11.027-4.5547z"/>
  <use x="70" y="644" xlink:href="#u"/>
  <use x="90.550781" y="644" xlink:href="#c"/>
  <use x="104.359375" y="644" xlink:href="#a"/>
  <use x="123.347656" y="644" xlink:href="#o"/>
  <use x="142.242188" y="644" xlink:href="#b"/>
  <use x="155.628906" y="644" xlink:href="#a"/>
  <use x="174.617188" y="644" xlink:href="#n"/>
  <use x="204.410156" y="644" xlink:href="#m"/>
  <use x="224.453125" y="644" xlink:href="#l"/>
  <use x="252.453125" y="644" xlink:href="#k"/>
  <use x="272.617188" y="644" xlink:href="#j"/>
  <use x="292.550781" y="644" xlink:href="#i"/>
  <use x="312.484375" y="644" xlink:href="#e"/>
  <use x="329.082031" y="644" xlink:href="#h"/>
  <use x="349.015625" y="644" xlink:href="#a"/>
  <use x="368.007812" y="644" xlink:href="#t"/>
  <use x="377.601562" y="644" xlink:href="#s"/>
  <use x="396.949219" y="644" xlink:href="#g"/>
  <use x="417.46875" y="644" xlink:href="#c"/>
  <use x="431.28125" y="644" xlink:href="#d"/>
  <use x="450.515625" y="644" xlink:href="#f"/>
  <use x="460.113281" y="644" xlink:href="#a"/>
  <use x="479.101562" y="644" xlink:href="#e"/>
  <use x="495.703125" y="644" xlink:href="#b"/>
  <use x="70" y="672" xlink:href="#r"/>
  <use x="82.183594" y="672" xlink:href="#c"/>
  <use x="95.992188" y="672" xlink:href="#d"/>
  <use x="115.226562" y="672" xlink:href="#q"/>
  <use x="154.152344" y="672" xlink:href="#b"/>
  <use x="167.535156" y="672" xlink:href="#h"/>
  <use x="187.46875" y="672" xlink:href="#a"/>
  <use x="216.207031" y="672" xlink:href="#p"/>
  <use x="239.640625" y="672" xlink:href="#d"/>
  <use x="258.878906" y="672" xlink:href="#j"/>
  <use x="278.8125" y="672" xlink:href="#i"/>
  <use x="308.492188" y="672" xlink:href="#g"/>
  <use x="329.015625" y="672" xlink:href="#c"/>
  <use x="342.820312" y="672" xlink:href="#d"/>
  <use x="362.058594" y="672" xlink:href="#f"/>
  <use x="371.65625" y="672" xlink:href="#a"/>
  <use x="390.648438" y="672" xlink:href="#e"/>
  <use x="407.242188" y="672" xlink:href="#b"/>
 </g>
</svg>
