<?xml version="1.0" encoding="UTF-8"?>
<svg width="700pt" height="700pt" version="1.1" viewBox="0 0 700 550" xmlns="http://www.w3.org/2000/svg" xmlns:xlink="http://www.w3.org/1999/xlink">
 <g fill="white">
  <!--<path d="m261.34 532c-7.7305 0-14 6.2695-14 14s6.2695 14 14 14h177.33c7.7344 0 14-6.2695 14-14s-6.2656-14-14-14z" fill-rule="evenodd"/>-->
  <path d="m350 0c-89.18 0.0039062-161.78 72.598-161.78 161.78 0 41.141 10.492 81.613 30.473 117.58l119.07 214.33c2.4727 4.4414 7.1562 7.1953 12.242 7.1953 5.082-0.003906 9.7695-2.7617 12.234-7.207l119.08-214.32c19.98-35.965 30.461-76.438 30.461-117.58 0-89.184-72.594-161.78-161.78-161.78zm0 28c74.051 0 133.78 59.727 133.78 133.78 0 36.387-9.2695 72.176-26.938 103.98l-106.84 192.29-106.83-192.29c-17.668-31.805-26.949-67.598-26.949-103.98 0-74.047 59.73-133.77 133.78-133.78z" fill-rule="evenodd"/>
  <path d="m350 88.672c-40.211 0-73.105 32.895-73.105 73.109s32.895 73.109 73.105 73.109 73.117-32.895 73.117-73.109-32.906-73.109-73.117-73.109zm0 28c25.082 0 45.117 20.027 45.117 45.109s-20.035 45.109-45.117 45.109-45.105-20.027-45.105-45.109 20.027-45.109 45.105-45.109z" fill-rule="evenodd"/>
  <use x="70" y="644" xlink:href="#t"/>
  <use x="90.550781" y="644" xlink:href="#c"/>
  <use x="104.359375" y="644" xlink:href="#b"/>
  <use x="123.347656" y="644" xlink:href="#a"/>
  <use x="142.242188" y="644" xlink:href="#e"/>
  <use x="155.628906" y="644" xlink:href="#b"/>
  <use x="174.617188" y="644" xlink:href="#g"/>
  <use x="204.410156" y="644" xlink:href="#j"/>
  <use x="224.453125" y="644" xlink:href="#i"/>
  <use x="252.453125" y="644" xlink:href="#h"/>
  <use x="262.867188" y="644" xlink:href="#a"/>
  <use x="281.765625" y="644" xlink:href="#d"/>
  <use x="311.445312" y="644" xlink:href="#s"/>
  <use x="333.117188" y="644" xlink:href="#d"/>
  <use x="353.046875" y="644" xlink:href="#a"/>
  <use x="371.945312" y="644" xlink:href="#d"/>
  <use x="391.875" y="644" xlink:href="#g"/>
  <use x="411.921875" y="644" xlink:href="#a"/>
  <use x="430.8125" y="644" xlink:href="#c"/>
  <use x="444.625" y="644" xlink:href="#a"/>
  <use x="70" y="672" xlink:href="#r"/>
  <use x="82.183594" y="672" xlink:href="#c"/>
  <use x="95.992188" y="672" xlink:href="#f"/>
  <use x="115.226562" y="672" xlink:href="#q"/>
  <use x="154.152344" y="672" xlink:href="#e"/>
  <use x="167.535156" y="672" xlink:href="#p"/>
  <use x="187.46875" y="672" xlink:href="#b"/>
  <use x="216.207031" y="672" xlink:href="#o"/>
  <use x="239.640625" y="672" xlink:href="#f"/>
  <use x="258.878906" y="672" xlink:href="#n"/>
  <use x="278.8125" y="672" xlink:href="#d"/>
  <use x="308.492188" y="672" xlink:href="#m"/>
  <use x="329.015625" y="672" xlink:href="#c"/>
  <use x="342.820312" y="672" xlink:href="#f"/>
  <use x="362.058594" y="672" xlink:href="#l"/>
  <use x="371.65625" y="672" xlink:href="#b"/>
  <use x="390.648438" y="672" xlink:href="#k"/>
  <use x="407.242188" y="672" xlink:href="#e"/>
 </g>
</svg>
