<?xml version="1.0" encoding="UTF-8"?>
<svg width="700pt" height="700pt" version="1.1" viewBox="0 0 700 550" xmlns="http://www.w3.org/2000/svg" xmlns:xlink="http://www.w3.org/1999/xlink">
 <g fill="white">
  <path d="m350 8.75c-96.645 0-175 74.727-175 166.91s175 375.59 175 375.59 175-283.37 175-375.59-78.355-166.91-175-166.91zm0 226.05c-17.52 0-34.324-6.957-46.715-19.348-12.387-12.391-19.348-29.191-19.348-46.715 0-17.52 6.9609-34.324 19.348-46.711 12.391-12.391 29.195-19.352 46.715-19.352s34.324 6.9609 46.715 19.352c12.387 12.387 19.348 29.191 19.348 46.711 0 17.523-6.9609 34.324-19.348 46.715-12.391 12.391-29.195 19.348-46.715 19.348z"/>
  <use x="70" y="625.625" xlink:href="#v"/>
  <use x="86.054688" y="625.625" xlink:href="#b"/>
  <use x="96.839844" y="625.625" xlink:href="#a"/>
  <use x="111.679687" y="625.625" xlink:href="#j"/>
  <use x="126.4375" y="625.625" xlink:href="#d"/>
  <use x="136.894531" y="625.625" xlink:href="#a"/>
  <use x="151.730469" y="625.625" xlink:href="#i"/>
  <use x="175.007812" y="625.625" xlink:href="#h"/>
  <use x="190.664062" y="625.625" xlink:href="#f"/>
  <use x="212.539062" y="625.625" xlink:href="#g"/>
  <use x="231.136719" y="625.625" xlink:href="#e"/>
  <use x="253.929688" y="625.625" xlink:href="#a"/>
  <use x="268.765625" y="625.625" xlink:href="#b"/>
  <use x="287.167969" y="625.625" xlink:href="#u"/>
  <use x="305.328125" y="625.625" xlink:href="#a"/>
  <use x="320.164062" y="625.625" xlink:href="#e"/>
  <use x="342.957031" y="625.625" xlink:href="#t"/>
  <use x="350.453125" y="625.625" xlink:href="#b"/>
  <use x="361.242188" y="625.625" xlink:href="#s"/>
  <use x="374.261719" y="625.625" xlink:href="#c"/>
  <use x="389.292969" y="625.625" xlink:href="#f"/>
  <use x="70" y="647.5" xlink:href="#r"/>
  <use x="79.515625" y="647.5" xlink:href="#b"/>
  <use x="90.304688" y="647.5" xlink:href="#c"/>
  <use x="105.332031" y="647.5" xlink:href="#e"/>
  <use x="135.742188" y="647.5" xlink:href="#d"/>
  <use x="146.199219" y="647.5" xlink:href="#q"/>
  <use x="161.773438" y="647.5" xlink:href="#a"/>
  <use x="184.222656" y="647.5" xlink:href="#p"/>
  <use x="202.53125" y="647.5" xlink:href="#c"/>
  <use x="217.558594" y="647.5" xlink:href="#o"/>
  <use x="233.132812" y="647.5" xlink:href="#n"/>
  <use x="256.320312" y="647.5" xlink:href="#m"/>
  <use x="272.355469" y="647.5" xlink:href="#b"/>
  <use x="283.140625" y="647.5" xlink:href="#c"/>
  <use x="298.171875" y="647.5" xlink:href="#l"/>
  <use x="305.667969" y="647.5" xlink:href="#a"/>
  <use x="320.503906" y="647.5" xlink:href="#k"/>
  <use x="333.472656" y="647.5" xlink:href="#d"/>
 </g>
</svg>
