<?xml version="1.0" encoding="UTF-8"?>
<svg width="700pt" height="700pt" version="1.1" viewBox="0 0 700 550" xmlns="http://www.w3.org/2000/svg" xmlns:xlink="http://www.w3.org/1999/xlink">
 <g fill="white">
  <path d="m570.66 57.867c-27.539-27.543-63.566-44.984-102.25-49.512-38.684-4.5273-77.766 4.1289-110.92 24.566-33.152 20.438-58.445 51.465-71.781 88.059-13.336 36.594-13.938 76.617-1.707 113.6l-194.14 194.13c-4.1484 4.0977-6.6055 9.6016-6.8828 15.426l-4.2617 80.352c-0.33203 6.2656 1.8438 12.406 6.0469 17.062 4.2031 4.6562 10.086 7.4453 16.352 7.7539l69.539 3.5039c0.41016 0 0.82031 0.03125 1.2461 0.03125 6.1914-0.027344 12.125-2.4922 16.516-6.8555s6.8906-10.281 6.957-16.473l0.32422-27.426 27.434-0.62109-0.003906-0.003906c6.043-0.14453 11.797-2.6016 16.082-6.8633 4.2852-4.2617 6.7695-10.008 6.9414-16.047l0.57812-20.41 24.754-2.2539v0.003906c5.9531-0.55859 11.477-3.3516 15.453-7.8164 3.9766-4.4648 6.1133-10.273 5.9805-16.254l-0.62109-25.762 25.691-0.67969v0.003906c6.043-0.14453 11.793-2.6172 16.059-6.8984l55.504-55.504c37.008 13.352 77.457 13.691 114.68 0.96875 37.227-12.727 69.008-37.754 90.105-70.961 21.094-33.207 30.246-72.613 25.941-111.71-4.3008-39.105-21.797-75.578-49.609-103.41zm-24.109 220.57c-19.32 19.371-43.941 32.594-70.758 38.012-26.82 5.4141-54.641 2.7773-79.965-7.582-4.2969-1.7539-9.0195-2.2031-13.57-1.2852-4.5508 0.92188-8.7305 3.1641-12.008 6.4531l-57.367 57.367-31.996 0.83984c-6.2422 0.17969-12.16 2.8203-16.461 7.3438-4.3008 4.5273-6.6367 10.57-6.5 16.812l0.62109 26.414-24.266 2.2031v-0.003907c-5.7461 0.52734-11.098 3.1406-15.047 7.3438-3.9531 4.2031-6.2266 9.707-6.3945 15.473l-0.55859 19.762-27.602 0.66016c-6.1094 0.13672-11.922 2.6484-16.211 7-4.2891 4.3516-6.7148 10.199-6.7617 16.309l-0.31641 26.648-48.086-2.4258 3.5078-65.824 196-196c3.2266-3.1836 5.457-7.2383 6.418-11.668 0.96094-4.4336 0.60938-9.0469-1.0117-13.281-11.75-31.309-11.816-65.805-0.18359-97.156 11.633-31.352 34.18-57.457 63.508-73.527 29.328-16.066 63.465-21.02 96.148-13.949 32.684 7.0742 61.723 25.695 81.785 52.449 20.059 26.754 29.801 59.848 27.43 93.203-2.3711 33.355-16.691 64.738-40.332 88.391zm-144.49-146.46c-12.523 12.527-19.562 29.516-19.562 47.23s7.0391 34.707 19.566 47.234c12.527 12.523 29.516 19.562 47.23 19.562 17.715 0 34.703-7.0391 47.23-19.562 12.527-12.527 19.562-29.52 19.566-47.234 0-17.715-7.0391-34.703-19.562-47.23-12.473-12.633-29.484-19.746-47.234-19.746s-34.762 7.1133-47.234 19.746zm70.348 70.355c-7.1836 7.1875-17.309 10.625-27.387 9.2969-10.078-1.3242-18.965-7.2617-24.047-16.066-5.0859-8.8008-5.7852-19.469-1.8984-28.859 3.8906-9.3906 11.926-16.441 21.742-19.074 9.8203-2.6328 20.305-0.54688 28.371 5.6367 8.0625 6.1875 12.793 15.773 12.797 25.938-0.003907 8.6758-3.4453 16.992-9.5781 23.129z"/>
  <use x="70" y="653.332031" xlink:href="#u"/>
  <use x="92.832031" y="653.332031" xlink:href="#d"/>
  <use x="108.175781" y="653.332031" xlink:href="#b"/>
  <use x="129.273437" y="653.332031" xlink:href="#h"/>
  <use x="150.269531" y="653.332031" xlink:href="#a"/>
  <use x="165.140625" y="653.332031" xlink:href="#b"/>
  <use x="186.242188" y="653.332031" xlink:href="#g"/>
  <use x="219.34375" y="653.332031" xlink:href="#k"/>
  <use x="241.613281" y="653.332031" xlink:href="#f"/>
  <use x="272.722656" y="653.332031" xlink:href="#j"/>
  <use x="296.800781" y="653.332031" xlink:href="#e"/>
  <use x="318.949219" y="653.332031" xlink:href="#g"/>
  <use x="341.21875" y="653.332031" xlink:href="#i"/>
  <use x="362.714844" y="653.332031" xlink:href="#t"/>
  <use x="391.457031" y="653.332031" xlink:href="#i"/>
  <use x="402.121094" y="653.332031" xlink:href="#f"/>
  <use x="422.398437" y="653.332031" xlink:href="#h"/>
  <use x="443.394531" y="653.332031" xlink:href="#e"/>
  <use x="465.542969" y="653.332031" xlink:href="#a"/>
  <use x="480.414062" y="653.332031" xlink:href="#c"/>
  <use x="70" y="684.445312" xlink:href="#s"/>
  <use x="83.535156" y="684.445312" xlink:href="#d"/>
  <use x="98.878906" y="684.445312" xlink:href="#c"/>
  <use x="120.25" y="684.445312" xlink:href="#r"/>
  <use x="163.5" y="684.445312" xlink:href="#a"/>
  <use x="178.371094" y="684.445312" xlink:href="#q"/>
  <use x="200.519531" y="684.445312" xlink:href="#b"/>
  <use x="232.453125" y="684.445312" xlink:href="#p"/>
  <use x="258.488281" y="684.445312" xlink:href="#c"/>
  <use x="279.863281" y="684.445312" xlink:href="#o"/>
  <use x="302.011719" y="684.445312" xlink:href="#e"/>
  <use x="334.992188" y="684.445312" xlink:href="#n"/>
  <use x="357.792969" y="684.445312" xlink:href="#d"/>
  <use x="373.136719" y="684.445312" xlink:href="#c"/>
  <use x="394.507812" y="684.445312" xlink:href="#m"/>
  <use x="405.171875" y="684.445312" xlink:href="#b"/>
  <use x="426.273437" y="684.445312" xlink:href="#l"/>
  <use x="444.714844" y="684.445312" xlink:href="#a"/>
 </g>
</svg>
