<?xml version="1.0" encoding="UTF-8"?>
<svg width="700pt" height="700pt" version="1.1" viewBox="0 0 700 550" xmlns="http://www.w3.org/2000/svg" xmlns:xlink="http://www.w3.org/1999/xlink">
 <g fill="white">
  <path d="m345.63 113.73c-35.41 35.41-44.805 87.082-28.09 131.04l-165.94 165.94-7.5469 71.648 94.664-16.211 3.9609-43.559 43.559-3.9609 3.9609-43.559 43.559-3.9609 55.066-55.066c43.961 16.715 95.633 7.3203 131.04-28.09 48.113-48.113 48.113-126.12 0-174.23-48.113-48.113-126.12-48.113-174.23 0zm91.074 35.637c13.121-13.121 34.395-13.121 47.52 0 13.121 13.121 13.121 34.395 0 47.52-13.121 13.121-34.395 13.121-47.52 0-13.121-13.121-13.121-34.395 0-47.52z"/>
  <use x="70" y="644" xlink:href="#u"/>
  <use x="90.550781" y="644" xlink:href="#c"/>
  <use x="104.359375" y="644" xlink:href="#a"/>
  <use x="123.347656" y="644" xlink:href="#g"/>
  <use x="142.242188" y="644" xlink:href="#b"/>
  <use x="155.628906" y="644" xlink:href="#a"/>
  <use x="174.617188" y="644" xlink:href="#i"/>
  <use x="204.410156" y="644" xlink:href="#h"/>
  <use x="224.453125" y="644" xlink:href="#f"/>
  <use x="252.453125" y="644" xlink:href="#e"/>
  <use x="271.578125" y="644" xlink:href="#g"/>
  <use x="290.472656" y="644" xlink:href="#t"/>
  <use x="310.515625" y="644" xlink:href="#s"/>
  <use x="320.113281" y="644" xlink:href="#a"/>
  <use x="348.851562" y="644" xlink:href="#e"/>
  <use x="367.976562" y="644" xlink:href="#f"/>
  <use x="386.230469" y="644" xlink:href="#a"/>
  <use x="70" y="672" xlink:href="#r"/>
  <use x="82.183594" y="672" xlink:href="#c"/>
  <use x="95.992188" y="672" xlink:href="#d"/>
  <use x="115.226562" y="672" xlink:href="#q"/>
  <use x="154.152344" y="672" xlink:href="#b"/>
  <use x="167.535156" y="672" xlink:href="#p"/>
  <use x="187.46875" y="672" xlink:href="#a"/>
  <use x="216.207031" y="672" xlink:href="#o"/>
  <use x="239.640625" y="672" xlink:href="#d"/>
  <use x="258.878906" y="672" xlink:href="#n"/>
  <use x="278.8125" y="672" xlink:href="#m"/>
  <use x="308.492188" y="672" xlink:href="#l"/>
  <use x="329.015625" y="672" xlink:href="#c"/>
  <use x="342.820312" y="672" xlink:href="#d"/>
  <use x="362.058594" y="672" xlink:href="#k"/>
  <use x="371.65625" y="672" xlink:href="#a"/>
  <use x="390.648438" y="672" xlink:href="#j"/>
  <use x="407.242188" y="672" xlink:href="#b"/>
 </g>
</svg>
