<?xml version="1.0" encoding="UTF-8"?>
<svg width="700pt" height="700pt" version="1.1" viewBox="0 0 680 560" xmlns="http://www.w3.org/2000/svg" xmlns:xlink="http://www.w3.org/1999/xlink">
 <g fill="white">
  <path d="m462 257.6h-16.801v-47.602c0-54.035-43.965-98-98-98-54.035 0-98 43.965-98 98v47.602h-11.199c-12.371 0-22.398 10.031-22.398 22.398v145.6c0 12.371 10.031 22.398 22.398 22.398h224c12.371 0 22.398-10.031 22.398-22.398v-145.6c0-12.371-10.027-22.398-22.398-22.398zm-95.199 117.6c0 9.2773-7.5195 16.801-16.801 16.801-9.2773 0-16.801-7.5195-16.801-16.801v-44.801c0-9.2773 7.5195-16.801 16.801-16.801 9.2773 0 16.801 7.5195 16.801 16.801zm-84-117.6v-47.602c0-35.508 28.891-64.398 64.398-64.398 35.512 0 64.402 28.891 64.402 64.398v47.602z"/>
  <use x="70" y="644" xlink:href="#w"/>
  <use x="90.550781" y="644" xlink:href="#d"/>
  <use x="104.359375" y="644" xlink:href="#b"/>
  <use x="123.347656" y="644" xlink:href="#j"/>
  <use x="142.242188" y="644" xlink:href="#c"/>
  <use x="155.628906" y="644" xlink:href="#b"/>
  <use x="174.617188" y="644" xlink:href="#i"/>
  <use x="204.410156" y="644" xlink:href="#f"/>
  <use x="224.453125" y="644" xlink:href="#e"/>
  <use x="252.453125" y="644" xlink:href="#h"/>
  <use x="272.617188" y="644" xlink:href="#b"/>
  <use x="291.609375" y="644" xlink:href="#c"/>
  <use x="304.992188" y="644" xlink:href="#e"/>
  <use x="323.242188" y="644" xlink:href="#a"/>
  <use x="352.226562" y="644" xlink:href="#v"/>
  <use x="373.898438" y="644" xlink:href="#d"/>
  <use x="387.707031" y="644" xlink:href="#g"/>
  <use x="407.054688" y="644" xlink:href="#u"/>
  <use x="437.9375" y="644" xlink:href="#g"/>
  <use x="447.535156" y="644" xlink:href="#f"/>
  <use x="467.578125" y="644" xlink:href="#a"/>
  <use x="486.8125" y="644" xlink:href="#t"/>
  <use x="512.679687" y="644" xlink:href="#a"/>
  <use x="70" y="672" xlink:href="#s"/>
  <use x="82.183594" y="672" xlink:href="#d"/>
  <use x="95.992188" y="672" xlink:href="#a"/>
  <use x="115.226562" y="672" xlink:href="#r"/>
  <use x="154.152344" y="672" xlink:href="#c"/>
  <use x="167.535156" y="672" xlink:href="#q"/>
  <use x="187.46875" y="672" xlink:href="#b"/>
  <use x="216.207031" y="672" xlink:href="#p"/>
  <use x="239.640625" y="672" xlink:href="#a"/>
  <use x="258.878906" y="672" xlink:href="#o"/>
  <use x="278.8125" y="672" xlink:href="#n"/>
  <use x="308.492188" y="672" xlink:href="#m"/>
  <use x="329.015625" y="672" xlink:href="#d"/>
  <use x="342.820312" y="672" xlink:href="#a"/>
  <use x="362.058594" y="672" xlink:href="#l"/>
  <use x="371.65625" y="672" xlink:href="#b"/>
  <use x="390.648438" y="672" xlink:href="#k"/>
  <use x="407.242188" y="672" xlink:href="#c"/>
 </g>
</svg>
