<?xml version="1.0" encoding="UTF-8"?>
<svg width="700pt" height="700pt" version="1.1" viewBox="0 0 700 550" xmlns="http://www.w3.org/2000/svg">
 <path fill="white" stroke-width="10px" stroke="white" d="m499.32 404.82 122.7-107.36c9.6992-8.4844 10.684-23.227 2.1953-32.922-0.67969-0.78125-1.4141-1.5156-2.1953-2.1992l-123.45-108.01c-9.2695-8.1094-23.25-7.6172-31.926 1.125l-0.12109 0.12109c-8.1641 8.2266-8.1172 21.52 0.11328 29.688 0.25 0.25 0.50781 0.49219 0.76953 0.72656l78.68 70.578h-312.7c-12.887 0-23.336 10.449-23.336 23.336 0 12.887 10.449 23.332 23.336 23.332h312.7l-77.625 67.25c-9.4375 8.1758-10.461 22.453-2.2852 31.891 0.11328 0.13281 0.23047 0.26562 0.34766 0.39453l0.15625 0.17188c8.5508 9.418 23.066 10.25 32.641 1.875zm-79.188-288.15c-12.891 0-23.34-10.453-23.34-23.344v-46.656h-256.78c-12.887 0-23.336 10.445-23.336 23.332v420c0 12.887 10.449 23.332 23.336 23.332h256.78v-46.656c0-12.891 10.449-23.344 23.34-23.344 12.895 0 23.344 10.453 23.344 23.344v46.656c-0.14844 23.336-23.48 46.668-46.684 46.668h-280.11c-23.34 0-46.684-23.332-46.684-46.668v-466.66c0-23.336 23.344-46.668 46.684-46.668h279.98c23.332 0 46.664 23.816 46.664 46.668l0.10156 46.656c0.023437 12.863-10.383 23.316-23.246 23.344h-0.050781z" fill-rule="evenodd"/>
</svg>
