<?xml version="1.0" encoding="UTF-8"?>
<svg width="700pt" height="700pt" version="1.1" viewBox="0 0 700 550" xmlns="http://www.w3.org/2000/svg" xmlns:xlink="http://www.w3.org/1999/xlink">
 <g fill="white">
  <path d="m268.93 67.199c-83.66 31.004-131.73 111.57-131.73 206.02 0 121.27 98.309 219.58 219.58 219.58 94.441 0 175.02-48.074 206.02-131.73-25.008 10.059-52.301 15.199-80.906 15.199-119.86 0-228.16-108.3-228.16-228.16 0-28.609 5.1406-55.898 15.199-80.906z"/>
  <use x="70" y="644" xlink:href="#x"/>
  <use x="90.550781" y="644" xlink:href="#b"/>
  <use x="104.359375" y="644" xlink:href="#a"/>
  <use x="123.347656" y="644" xlink:href="#k"/>
  <use x="142.242188" y="644" xlink:href="#c"/>
  <use x="155.628906" y="644" xlink:href="#a"/>
  <use x="174.617188" y="644" xlink:href="#j"/>
  <use x="204.410156" y="644" xlink:href="#i"/>
  <use x="224.453125" y="644" xlink:href="#h"/>
  <use x="252.453125" y="644" xlink:href="#g"/>
  <use x="271.550781" y="644" xlink:href="#f"/>
  <use x="291.484375" y="644" xlink:href="#b"/>
  <use x="305.292969" y="644" xlink:href="#a"/>
  <use x="324.28125" y="644" xlink:href="#a"/>
  <use x="353.023438" y="644" xlink:href="#w"/>
  <use x="373.1875" y="644" xlink:href="#e"/>
  <use x="382.785156" y="644" xlink:href="#v"/>
  <use x="410.59375" y="644" xlink:href="#u"/>
  <use x="429.71875" y="644" xlink:href="#e"/>
  <use x="439.320312" y="644" xlink:href="#t"/>
  <use x="457.570312" y="644" xlink:href="#a"/>
  <use x="70" y="672" xlink:href="#s"/>
  <use x="82.183594" y="672" xlink:href="#b"/>
  <use x="95.992188" y="672" xlink:href="#d"/>
  <use x="115.226562" y="672" xlink:href="#r"/>
  <use x="154.152344" y="672" xlink:href="#c"/>
  <use x="167.535156" y="672" xlink:href="#f"/>
  <use x="187.46875" y="672" xlink:href="#a"/>
  <use x="216.207031" y="672" xlink:href="#q"/>
  <use x="239.640625" y="672" xlink:href="#d"/>
  <use x="258.878906" y="672" xlink:href="#p"/>
  <use x="278.8125" y="672" xlink:href="#o"/>
  <use x="308.492188" y="672" xlink:href="#n"/>
  <use x="329.015625" y="672" xlink:href="#b"/>
  <use x="342.820312" y="672" xlink:href="#d"/>
  <use x="362.058594" y="672" xlink:href="#m"/>
  <use x="371.65625" y="672" xlink:href="#a"/>
  <use x="390.648438" y="672" xlink:href="#l"/>
  <use x="407.242188" y="672" xlink:href="#c"/>
 </g>
</svg>
