<?xml version="1.0" encoding="UTF-8"?>
<svg width="700pt" height="700pt" version="1.1" viewBox="0 0 700 550" xmlns="http://www.w3.org/2000/svg" xmlns:xlink="http://www.w3.org/1999/xlink">
 <g fill="white">
  <path d="m536.48 128.8h-213.92c-3.7539-13.168-11.68-24.762-22.586-33.039-10.902-8.2812-24.199-12.801-37.895-12.883-13.617 0.11328-26.832 4.6523-37.641 12.938s-18.629 19.863-22.277 32.984h-36.961c-6 0-11.547 3.2031-14.547 8.3984-3.0039 5.1992-3.0039 11.602 0 16.801 3 5.1992 8.5469 8.3984 14.547 8.3984h36.961c3.6484 13.125 11.469 24.703 22.277 32.984 10.809 8.2852 24.023 12.828 37.641 12.938 13.695-0.082031 26.992-4.6016 37.895-12.879 10.906-8.2812 18.832-19.875 22.586-33.043h213.92c6 0 11.547-3.1992 14.547-8.3984 3.0039-5.1992 3.0039-11.602 0-16.801-3-5.1953-8.5469-8.3984-14.547-8.3984zm-274.4 45.922-0.003906-0.003906c-7.7227 0-15.129-3.0664-20.59-8.5273-5.4609-5.4609-8.5273-12.867-8.5273-20.59 0-7.7266 3.0664-15.133 8.5273-20.594 5.4609-5.4609 12.867-8.5273 20.59-8.5273 7.7266 0 15.133 3.0664 20.594 8.5273 5.4609 5.4609 8.5273 12.867 8.5273 20.594 0 7.7227-3.0664 15.129-8.5273 20.59-5.4609 5.4609-12.867 8.5273-20.594 8.5273z"/>
  <path d="m536.48 263.2h-38.641c-3.6484-13.121-11.469-24.699-22.277-32.984s-24.023-12.824-37.641-12.934c-13.695 0.078125-26.992 4.5977-37.895 12.879-10.906 8.2812-18.832 19.871-22.586 33.039h-212.24c-6 0-11.547 3.2031-14.547 8.4023-3.0039 5.1953-3.0039 11.602 0 16.797 3 5.1992 8.5469 8.4023 14.547 8.4023h212.24c3.7539 13.168 11.68 24.758 22.586 33.039 10.902 8.2812 24.199 12.801 37.895 12.879 13.617-0.10938 26.832-4.6484 37.641-12.934s18.629-19.863 22.277-32.984h38.641c6 0 11.547-3.2031 14.547-8.4023 3.0039-5.1953 3.0039-11.602 0-16.797-3-5.1992-8.5469-8.4023-14.547-8.4023zm-98.559 45.922c-7.7539 0.14844-15.25-2.8008-20.82-8.1953-5.5703-5.3945-8.7578-12.789-8.8594-20.547-0.10156-7.7539 2.8984-15.227 8.3281-20.762 5.4297-5.5391 12.844-8.6797 20.598-8.7305 7.7578-0.050781 15.211 2.9922 20.715 8.457 5.5 5.4688 8.5977 12.902 8.5977 20.656 0 7.6289-2.9883 14.949-8.332 20.395-5.3398 5.4453-12.602 8.5781-20.227 8.7266z"/>
  <path d="m536.48 397.6h-168.56c-5.3164-17.18-17.746-31.254-34.141-38.648-16.391-7.3906-35.172-7.3906-51.562 0-16.395 7.3945-28.824 21.469-34.141 38.648h-82.879c-6 0-11.547 3.1992-14.547 8.3984-3.0039 5.1992-3.0039 11.602 0 16.801 3 5.1953 8.5469 8.3984 14.547 8.3984h82.32c4.3398 18.285 16.719 33.625 33.672 41.727 16.953 8.1055 36.664 8.1055 53.617 0 16.953-8.1016 29.332-23.441 33.672-41.727h168c6 0 11.547-3.2031 14.547-8.3984 3.0039-5.1992 3.0039-11.602 0-16.801-3-5.1992-8.5469-8.3984-14.547-8.3984zm-228.48 47.598c-7.7227 0-15.129-3.0664-20.59-8.5273-5.4609-5.4609-8.5312-12.867-8.5312-20.594 0-7.7227 3.0703-15.129 8.5312-20.59 5.4609-5.4609 12.867-8.5273 20.59-8.5273s15.129 3.0664 20.59 8.5273c5.4609 5.4609 8.5312 12.867 8.5312 20.59 0 7.7266-3.0703 15.133-8.5312 20.594-5.4609 5.4609-12.867 8.5273-20.59 8.5273z"/>
  <use x="70" y="644" xlink:href="#w"/>
  <use x="90.550781" y="644" xlink:href="#b"/>
  <use x="104.359375" y="644" xlink:href="#a"/>
  <use x="123.347656" y="644" xlink:href="#e"/>
  <use x="142.242188" y="644" xlink:href="#d"/>
  <use x="155.628906" y="644" xlink:href="#a"/>
  <use x="174.617188" y="644" xlink:href="#g"/>
  <use x="204.410156" y="644" xlink:href="#k"/>
  <use x="224.453125" y="644" xlink:href="#j"/>
  <use x="252.453125" y="644" xlink:href="#i"/>
  <use x="280.3125" y="644" xlink:href="#e"/>
  <use x="299.210938" y="644" xlink:href="#b"/>
  <use x="313.015625" y="644" xlink:href="#v"/>
  <use x="322.617188" y="644" xlink:href="#a"/>
  <use x="351.351562" y="644" xlink:href="#u"/>
  <use x="373.023438" y="644" xlink:href="#e"/>
  <use x="391.917969" y="644" xlink:href="#f"/>
  <use x="421.601562" y="644" xlink:href="#g"/>
  <use x="441.640625" y="644" xlink:href="#a"/>
  <use x="460.632812" y="644" xlink:href="#f"/>
  <use x="490.3125" y="644" xlink:href="#t"/>
  <use x="511.65625" y="644" xlink:href="#b"/>
  <use x="525.464844" y="644" xlink:href="#c"/>
  <use x="544.703125" y="644" xlink:href="#a"/>
  <use x="563.691406" y="644" xlink:href="#h"/>
  <use x="580.289062" y="644" xlink:href="#s"/>
  <use x="70" y="672" xlink:href="#r"/>
  <use x="82.183594" y="672" xlink:href="#b"/>
  <use x="95.992188" y="672" xlink:href="#c"/>
  <use x="115.226562" y="672" xlink:href="#q"/>
  <use x="154.152344" y="672" xlink:href="#d"/>
  <use x="167.535156" y="672" xlink:href="#p"/>
  <use x="187.46875" y="672" xlink:href="#a"/>
  <use x="216.207031" y="672" xlink:href="#o"/>
  <use x="239.640625" y="672" xlink:href="#c"/>
  <use x="258.878906" y="672" xlink:href="#n"/>
  <use x="278.8125" y="672" xlink:href="#f"/>
  <use x="308.492188" y="672" xlink:href="#m"/>
  <use x="329.015625" y="672" xlink:href="#b"/>
  <use x="342.820312" y="672" xlink:href="#c"/>
  <use x="362.058594" y="672" xlink:href="#l"/>
  <use x="371.65625" y="672" xlink:href="#a"/>
  <use x="390.648438" y="672" xlink:href="#h"/>
  <use x="407.242188" y="672" xlink:href="#d"/>
 </g>
</svg>
