<?xml version="1.0" encoding="UTF-8"?>
<svg width="700pt" height="700pt" version="1.1" viewBox="0 0 700 550" xmlns="http://www.w3.org/2000/svg" xmlns:xlink="http://www.w3.org/1999/xlink">
 <g fill="white">
  <path d="m210 149.29h154.96v17.5h-154.96z"/>
  <path d="m335.04 264.67h154.96v17.5h-154.96z"/>
  <path d="m210 187.73h280v17.5h-280z"/>
  <path d="m210 226.2h280v17.5h-280z"/>
  <path d="m542.5 382.11v-230.07l-130.16-130.16h-219.84c-9.2812 0-18.184 3.6875-24.75 10.25-6.5625 6.5664-10.25 15.469-10.25 24.75v295.24c-2.6523 1.5234-4.8594 3.7148-6.3945 6.3633-1.5352 2.6445-2.3477 5.6445-2.3555 8.7031v127.19c0.015625 11.598 4.6289 22.719 12.828 30.922 8.2031 8.1992 19.324 12.812 30.922 12.828h315c11.598-0.015625 22.719-4.6289 30.922-12.828 8.1992-8.2031 12.812-19.324 12.828-30.922v-97.188c-0.007812-3.0586-0.81641-6.0625-2.3555-8.7109-1.5352-2.6445-3.7422-4.8398-6.3945-6.3633zm-233.53 84.43c-5.9688 4.3359-13.27 6.4453-20.633 5.957h-11.945v30.625h-16.695v-78.059h28.77c3.7148-0.03125 7.4219 0.39453 11.035 1.2617 3.1953 0.74609 6.1992 2.1406 8.8359 4.0938 2.5547 1.9414 4.5859 4.4844 5.918 7.4023 1.5117 3.4805 2.2461 7.2539 2.1406 11.051 0.43359 6.7266-2.3164 13.27-7.4258 17.668zm75.059 14.227h-0.003906c-1.3242 4.5586-3.6875 8.7539-6.9023 12.25-6.8945 7.1289-16.582 10.852-26.477 10.184h-25.742v-78.137h25.531c5.4844-0.13281 10.941 0.8125 16.066 2.7812 4.2969 1.7109 8.1172 4.4297 11.145 7.9297 3.0195 3.6016 5.2305 7.8086 6.4844 12.336 1.4531 5.2461 2.1602 10.672 2.0938 16.117 0.085938 5.5898-0.65625 11.164-2.1992 16.539zm61.52-41.422h-33.914v15.961h25.305l0.10547 14.281-25.375 0.10547v33.496l-16.73-0.003906v-78.121h50.609zm79.449-59.66h-191.75l-21-24.027c-3.3242-3.7969-8.125-5.9766-13.172-5.9766h-124.08v-292.81c0-4.6406 1.8438-9.0938 5.125-12.375s7.7344-5.125 12.375-5.125h207.46v90.039c0 9.2812 3.6875 18.184 10.254 24.746 6.5625 6.5664 15.465 10.254 24.746 10.254h90.039z"/>
  <path d="m364.79 445.49c-3.4844-4.2695-8.8398-6.5586-14.336-6.125h-8.8516v49.559h8.6445c3.2891 0.125 6.5625-0.55078 9.5352-1.957 2.418-1.2344 4.457-3.1016 5.8984-5.3984 1.4961-2.4375 2.5156-5.1328 3.0117-7.9453 0.58594-3.1602 0.87891-6.3672 0.875-9.582 0.058594-3.6523-0.34766-7.3008-1.207-10.852-0.67578-2.7734-1.8906-5.3906-3.5703-7.6992z"/>
  <path d="m296.86 441.61c-2.9531-1.7617-6.3828-2.5508-9.8086-2.2578h-10.656v18.898h10.656c1.6055 0.003906 3.2109-0.11719 4.7969-0.35938 1.4062-0.19922 2.7656-0.65234 4.0078-1.3398 1.1641-0.65234 2.1289-1.6094 2.7891-2.7734 0.76562-1.4336 1.1328-3.0469 1.0586-4.6719 0.058594-1.5898-0.19531-3.1758-0.74219-4.6719-0.42578-1.1172-1.1523-2.0938-2.1016-2.8242z"/>
  <use x="70" y="691.25" xlink:href="#m"/>
  <use x="102.109375" y="691.25" xlink:href="#h"/>
  <use x="123.683594" y="691.25" xlink:href="#b"/>
  <use x="153.355469" y="691.25" xlink:href="#a"/>
  <use x="182.878906" y="691.25" xlink:href="#g"/>
  <use x="203.792969" y="691.25" xlink:href="#b"/>
  <use x="233.464844" y="691.25" xlink:href="#f"/>
  <use x="280.011719" y="691.25" xlink:href="#e"/>
  <use x="311.328125" y="691.25" xlink:href="#d"/>
  <use x="355.078125" y="691.25" xlink:href="#c"/>
  <use x="371.359375" y="691.25" xlink:href="#l"/>
  <use x="402.503906" y="691.25" xlink:href="#k"/>
  <use x="433.652344" y="691.25" xlink:href="#j"/>
  <use x="469.5625" y="691.25" xlink:href="#i"/>
  <use x="501.070312" y="691.25" xlink:href="#a"/>
 </g>
</svg>
