<?xml version="1.0" encoding="UTF-8"?>
<svg width="700pt" height="700pt" version="1.1" viewBox="0 0 700 530" xmlns="http://www.w3.org/2000/svg" xmlns:xlink="http://www.w3.org/1999/xlink">
 <g fill="white">
  <path d="m620.97 384.17v-1.2578c-0.14062-8.7344-3.5352-17.098-9.5156-23.461-5.9805-6.3672-14.121-10.27-22.828-10.953-28.902-2.207-57.395-8.1797-84.75-17.77-6.1914-2.207-12.879-2.6133-19.289-1.1719-6.4141 1.4414-12.285 4.6758-16.934 9.3203l-51.707 51.133h0.003907c-2.9531 2.9922-6.7969 4.9414-10.949 5.5625-4.1562 0.62109-8.4023-0.125-12.098-2.1211-66.641-35.227-121.13-89.711-156.36-156.35-2-3.6953-2.7461-7.9375-2.125-12.094 0.61719-4.1562 2.5664-7.9961 5.5586-10.949l51.133-51.699c4.6445-4.6484 7.875-10.52 9.3125-16.93 1.4375-6.4102 1.0234-13.098-1.1875-19.285-9.5859-27.359-15.551-55.852-17.742-84.758-0.69531-8.9141-4.7695-17.227-11.387-23.238-6.6172-6.0117-15.277-9.2734-24.219-9.1172l-130.73 2.4883c-8.6133 0.15234-16.867 3.4805-23.18 9.3477-6.3086 5.8633-10.234 13.852-11.016 22.434-5.9961 67.855 3.0703 136.2 26.555 200.14 23.48 63.945 60.801 121.91 109.29 169.76 42.926 43.418 94.004 77.938 150.3 101.58 56.297 23.641 116.7 35.938 177.76 36.188 13.957 0 27.898-0.64453 41.82-1.9375l-0.003906-0.003906c8.5781-0.78516 16.559-4.7109 22.422-11.02 5.8594-6.3086 9.1875-14.559 9.3438-23.168z" fill-rule="evenodd"/>
  <use x="70" y="650.324219" xlink:href="#u"/>
  <use x="92.09375" y="650.324219" xlink:href="#d"/>
  <use x="106.945312" y="650.324219" xlink:href="#b"/>
  <use x="127.363281" y="650.324219" xlink:href="#f"/>
  <use x="147.679688" y="650.324219" xlink:href="#c"/>
  <use x="162.070312" y="650.324219" xlink:href="#b"/>
  <use x="182.492188" y="650.324219" xlink:href="#k"/>
  <use x="214.523437" y="650.324219" xlink:href="#j"/>
  <use x="236.078125" y="650.324219" xlink:href="#i"/>
  <use x="266.183594" y="650.324219" xlink:href="#h"/>
  <use x="276.503906" y="650.324219" xlink:href="#f"/>
  <use x="296.820312" y="650.324219" xlink:href="#t"/>
  <use x="316.84375" y="650.324219" xlink:href="#a"/>
  <use x="337.527344" y="650.324219" xlink:href="#e"/>
  <use x="358.960937" y="650.324219" xlink:href="#s"/>
  <use x="369.28125" y="650.324219" xlink:href="#g"/>
  <use x="387.128906" y="650.324219" xlink:href="#a"/>
  <use x="407.8125" y="650.324219" xlink:href="#e"/>
  <use x="70" y="680.429688" xlink:href="#r"/>
  <use x="83.097656" y="680.429688" xlink:href="#d"/>
  <use x="97.945312" y="680.429688" xlink:href="#a"/>
  <use x="118.628906" y="680.429688" xlink:href="#q"/>
  <use x="160.484375" y="680.429688" xlink:href="#c"/>
  <use x="174.875" y="680.429688" xlink:href="#p"/>
  <use x="196.308594" y="680.429688" xlink:href="#b"/>
  <use x="227.210937" y="680.429688" xlink:href="#o"/>
  <use x="252.410156" y="680.429688" xlink:href="#a"/>
  <use x="273.09375" y="680.429688" xlink:href="#n"/>
  <use x="294.527344" y="680.429688" xlink:href="#e"/>
  <use x="326.441406" y="680.429688" xlink:href="#m"/>
  <use x="348.507812" y="680.429688" xlink:href="#d"/>
  <use x="363.355469" y="680.429688" xlink:href="#a"/>
  <use x="384.042969" y="680.429688" xlink:href="#l"/>
  <use x="394.363281" y="680.429688" xlink:href="#b"/>
  <use x="414.78125" y="680.429688" xlink:href="#g"/>
  <use x="432.628906" y="680.429688" xlink:href="#c"/>
 </g>
</svg>
