<?xml version="1.0" encoding="UTF-8"?>
<svg width="700pt" height="700pt" version="1.1" viewBox="0 0 700 550" xmlns="http://www.w3.org/2000/svg" xmlns:xlink="http://www.w3.org/1999/xlink">
 <g fill="white">
  <path d="m513.8 33.469c14.789 0.050781 29.312 0.94922 43.227 1.75 2.1016-0.21094 4.4141 0.10156 6.3008 1.0508s3.4648 2.3867 4.5508 4.1992c0.085938 0.13672 0.097656 0.38672 0.17578 0.52344 0.03125 0.054687 0.14844 0.11719 0.17578 0.17578 0.98438 1.832 1.3555 3.875 1.2266 5.9492-0.13281 2.0742-0.89062 4.082-2.1016 5.7734-22.93 45.551-50.113 98.77-103.25 122.5-0.046874 0.023437-0.125-0.023437-0.17578 0-31.137 13.379-65.16 8.1602-93.801-4.5508-9.5312 5.8711-19.168 11.629-28.699 17.5v135.98h100.62c9.6797-0.23438 18.406 3.8672 23.801 10.148 5.4727 6.375 7.8789 14.469 7.875 22.227-0.003906 7.7578-2.3984 15.684-7.875 22.051-5.3945 6.2695-14.137 10.402-23.801 10.148h-8.0508c-5.1406 30.98-10.434 61.945-15.574 92.926-0.066406 0.40234-0.066406 0.66016-0.17578 1.0508-1.0664 3.8086-1.1836 12.184-3.3242 21-1.0703 4.4102-2.7891 9.1055-6.4766 13.477s-9.5547 7.7031-15.926 8.75c-0.60156 0.10156-1.1406 0.17188-1.75 0.17188h-99.926-0.69922c-4.207-0.28125-12.391 0.96484-21.523-0.34766-4.5703-0.65625-9.8008-2.1172-14.352-5.9492-4.4922-3.7852-7.5977-9.7422-8.5742-16.102-6.4336-38.363-12.816-76.613-19.25-114.98h-2.8008c-9.8516 1.7461-19.484-1.3906-25.727-7.1758-6.5234-6.0469-9.7461-14.102-10.5-22.227s0.77734-16.688 6.125-23.801c5.2812-7.0234 14.816-11.766 25.199-11.375h100.27v-37.977c-11.375-7.9531-22.75-16.02-34.125-23.977-19.281 8.1602-41.445 12.293-63.352 5.7734-0.09375 0-0.25781 0.054688-0.35156 0-46.941-15.309-69.984-60.832-88.551-97.648-1.2383-1.7188-1.9805-3.8359-2.1016-5.9492-0.12109-2.1133 0.36719-4.1016 1.3984-5.9492 0.070312-0.13281 0.10156-0.39844 0.17578-0.52344 0.039063-0.0625 0.13281-0.11328 0.17578-0.17578 1.0938-1.7656 2.6875-3.1055 4.5508-4.0234 1.8633-0.92188 3.8828-1.4258 5.9492-1.2266 41.176-2.3359 92.246-5.0273 128.98 28 0.070313 0.0625 0.10547 0.10938 0.17578 0.17578 18.293 17.324 25.543 41.52 27.301 64.227 6.6055 4.6172 13.172 9.207 19.773 13.824v-173.43c-0.019531-1.4805 0.32422-3.0039 0.875-4.375 0.55078-1.375 1.4102-2.6211 2.4492-3.6758 1.0391-1.0547 2.3125-1.8789 3.6758-2.4492s2.7188-0.875 4.1992-0.875c1.4805 0 3.0117 0.30469 4.375 0.875 1.3633 0.57031 2.6367 1.3984 3.6758 2.4492 1.0391 1.0547 1.8984 2.3008 2.4492 3.6758 0.55078 1.3711 0.72266 2.8945 0.69922 4.375v76.648c4.7891-2.9492 9.7344-5.8008 14.523-8.75 2.2695-33.023 14.449-68.156 43.398-89.773 0.042968-0.027344-0.042969-0.14453 0-0.17578 34.234-24.812 75.129-30.051 114.45-29.926z" fill-rule="evenodd"/>
  <use x="70" y="644" xlink:href="#t"/>
  <use x="90.550781" y="644" xlink:href="#d"/>
  <use x="104.359375" y="644" xlink:href="#c"/>
  <use x="123.347656" y="644" xlink:href="#g"/>
  <use x="142.242188" y="644" xlink:href="#e"/>
  <use x="155.628906" y="644" xlink:href="#c"/>
  <use x="174.617188" y="644" xlink:href="#b"/>
  <use x="204.410156" y="644" xlink:href="#j"/>
  <use x="224.453125" y="644" xlink:href="#i"/>
  <use x="252.453125" y="644" xlink:href="#g"/>
  <use x="271.34375" y="644" xlink:href="#f"/>
  <use x="291.28125" y="644" xlink:href="#b"/>
  <use x="311.320312" y="644" xlink:href="#d"/>
  <use x="325.132812" y="644" xlink:href="#h"/>
  <use x="334.726562" y="644" xlink:href="#s"/>
  <use x="360.59375" y="644" xlink:href="#h"/>
  <use x="370.195312" y="644" xlink:href="#b"/>
  <use x="390.234375" y="644" xlink:href="#a"/>
  <use x="409.472656" y="644" xlink:href="#b"/>
  <use x="429.515625" y="644" xlink:href="#a"/>
  <use x="70" y="672" xlink:href="#r"/>
  <use x="82.183594" y="672" xlink:href="#d"/>
  <use x="95.992188" y="672" xlink:href="#a"/>
  <use x="115.226562" y="672" xlink:href="#q"/>
  <use x="154.152344" y="672" xlink:href="#e"/>
  <use x="167.535156" y="672" xlink:href="#p"/>
  <use x="187.46875" y="672" xlink:href="#c"/>
  <use x="216.207031" y="672" xlink:href="#o"/>
  <use x="239.640625" y="672" xlink:href="#a"/>
  <use x="258.878906" y="672" xlink:href="#n"/>
  <use x="278.8125" y="672" xlink:href="#f"/>
  <use x="308.492188" y="672" xlink:href="#m"/>
  <use x="329.015625" y="672" xlink:href="#d"/>
  <use x="342.820312" y="672" xlink:href="#a"/>
  <use x="362.058594" y="672" xlink:href="#l"/>
  <use x="371.65625" y="672" xlink:href="#c"/>
  <use x="390.648438" y="672" xlink:href="#k"/>
  <use x="407.242188" y="672" xlink:href="#e"/>
 </g>
</svg>
