<?xml version="1.0" encoding="UTF-8"?>
<svg width="700pt" height="700pt" version="1.1" viewBox="0 0 700 550" xmlns="http://www.w3.org/2000/svg" xmlns:xlink="http://www.w3.org/1999/xlink">
 <g fill="white">
  <path d="m350 52.5c-60.336 0-118.2 23.969-160.87 66.633-42.664 42.664-66.633 100.53-66.633 160.87s23.969 118.2 66.633 160.87c42.664 42.664 100.53 66.633 160.87 66.633s118.2-23.969 160.87-66.633c42.664-42.664 66.633-100.53 66.633-160.87-0.066406-60.316-24.059-118.14-66.707-160.79-42.652-42.648-100.48-66.641-160.79-66.707zm17.5 332.5c0 6.2539-3.3359 12.031-8.75 15.156s-12.086 3.125-17.5 0-8.75-8.9023-8.75-15.156v-210c0-6.2539 3.3359-12.031 8.75-15.156s12.086-3.125 17.5 0 8.75 8.9023 8.75 15.156z"/>
  <use x="70" y="691.25" xlink:href="#o"/>
  <use x="102.109375" y="691.25" xlink:href="#c"/>
  <use x="123.683594" y="691.25" xlink:href="#b"/>
  <use x="153.355469" y="691.25" xlink:href="#a"/>
  <use x="182.878906" y="691.25" xlink:href="#j"/>
  <use x="203.792969" y="691.25" xlink:href="#b"/>
  <use x="233.464844" y="691.25" xlink:href="#i"/>
  <use x="280.011719" y="691.25" xlink:href="#h"/>
  <use x="311.328125" y="691.25" xlink:href="#g"/>
  <use x="355.078125" y="691.25" xlink:href="#f"/>
  <use x="388.9375" y="691.25" xlink:href="#e"/>
  <use x="403.9375" y="691.25" xlink:href="#c"/>
  <use x="425.511719" y="691.25" xlink:href="#a"/>
  <use x="455.035156" y="691.25" xlink:href="#d"/>
  <use x="485.261719" y="691.25" xlink:href="#n"/>
  <use x="504.296875" y="691.25" xlink:href="#a"/>
  <use x="533.820312" y="691.25" xlink:href="#e"/>
  <use x="548.816406" y="691.25" xlink:href="#m"/>
  <use x="574.855469" y="691.25" xlink:href="#a"/>
  <use x="604.378906" y="691.25" xlink:href="#d"/>
  <use x="619.375" y="691.25" xlink:href="#l"/>
  <use x="649.429688" y="691.25" xlink:href="#k"/>
  <use x="677.949219" y="691.25" xlink:href="#b"/>
 </g>
</svg>
