<?xml version="1.0" encoding="UTF-8"?>
<svg width="700pt" height="700pt" version="1.1" viewBox="0 0 700 550" xmlns="http://www.w3.org/2000/svg" xmlns:xlink="http://www.w3.org/1999/xlink">
 <g fill="white">
  <path d="m260.11 226.82c-2.4297-16.32-10.516-53.535-36.113-84.254-25.598 30.715-33.691 67.934-36.113 84.254-0.62109 2.6953-0.98438 5.4922-0.98438 8.3789 0 20.492 16.609 37.102 37.102 37.102 20.492 0 37.102-16.609 37.102-37.102-0.003907-2.8867-0.36328-5.6797-0.99219-8.3789z"/>
  <path d="m358.81 291.69c-2.4297-16.32-10.523-53.543-36.113-84.258-25.598 30.715-33.691 67.938-36.113 84.258-0.62109 2.6875-0.98438 5.4883-0.98438 8.3711 0 20.492 16.609 37.102 37.102 37.102 20.484 0 37.102-16.609 37.102-37.102-0.003907-2.8828-0.36328-5.6836-0.99219-8.3711z"/>
  <path d="m468.71 148.89c-2.4297-16.32-10.523-53.543-36.113-84.258-25.594 30.715-33.691 67.938-36.113 84.258-0.62109 2.6875-0.98438 5.4883-0.98438 8.3711 0 20.492 16.613 37.102 37.102 37.102 20.484 0 37.102-16.609 37.102-37.102-0.007812-2.8867-0.36719-5.6836-0.99219-8.3711z"/>
  <path d="m512.11 369.39c-2.4297-16.32-10.523-53.543-36.113-84.258-25.594 30.715-33.691 67.938-36.113 84.258-0.62109 2.6875-0.98438 5.4883-0.98438 8.3711 0 20.492 16.613 37.102 37.102 37.102 20.484 0 37.102-16.609 37.102-37.102-0.003907-2.8867-0.36328-5.6836-0.99219-8.3711z"/>
  <path d="m268.52 449.89c-2.4258-16.32-10.523-53.543-36.117-84.258-25.594 30.715-33.691 67.938-36.113 84.258-0.62109 2.6875-0.98438 5.4883-0.98438 8.3711 0 20.492 16.613 37.102 37.102 37.102 20.484 0 37.102-16.609 37.102-37.102-0.003906-2.8867-0.36328-5.6836-0.98828-8.3711z"/>
  <use x="70" y="644" xlink:href="#x"/>
  <use x="90.550781" y="644" xlink:href="#c"/>
  <use x="104.359375" y="644" xlink:href="#b"/>
  <use x="123.347656" y="644" xlink:href="#e"/>
  <use x="142.242188" y="644" xlink:href="#d"/>
  <use x="155.628906" y="644" xlink:href="#b"/>
  <use x="174.617188" y="644" xlink:href="#k"/>
  <use x="204.410156" y="644" xlink:href="#j"/>
  <use x="224.453125" y="644" xlink:href="#i"/>
  <use x="252.453125" y="644" xlink:href="#h"/>
  <use x="280.3125" y="644" xlink:href="#e"/>
  <use x="299.210938" y="644" xlink:href="#c"/>
  <use x="313.015625" y="644" xlink:href="#g"/>
  <use x="329.617188" y="644" xlink:href="#a"/>
  <use x="358.601562" y="644" xlink:href="#w"/>
  <use x="376.441406" y="644" xlink:href="#f"/>
  <use x="386.039062" y="644" xlink:href="#v"/>
  <use x="404.289062" y="644" xlink:href="#a"/>
  <use x="423.527344" y="644" xlink:href="#u"/>
  <use x="433.125" y="644" xlink:href="#t"/>
  <use x="449.789062" y="644" xlink:href="#f"/>
  <use x="70" y="672" xlink:href="#s"/>
  <use x="82.183594" y="672" xlink:href="#c"/>
  <use x="95.992188" y="672" xlink:href="#a"/>
  <use x="115.226562" y="672" xlink:href="#r"/>
  <use x="154.152344" y="672" xlink:href="#d"/>
  <use x="167.535156" y="672" xlink:href="#q"/>
  <use x="187.46875" y="672" xlink:href="#b"/>
  <use x="216.207031" y="672" xlink:href="#p"/>
  <use x="239.640625" y="672" xlink:href="#a"/>
  <use x="258.878906" y="672" xlink:href="#o"/>
  <use x="278.8125" y="672" xlink:href="#n"/>
  <use x="308.492188" y="672" xlink:href="#m"/>
  <use x="329.015625" y="672" xlink:href="#c"/>
  <use x="342.820312" y="672" xlink:href="#a"/>
  <use x="362.058594" y="672" xlink:href="#l"/>
  <use x="371.65625" y="672" xlink:href="#b"/>
  <use x="390.648438" y="672" xlink:href="#g"/>
  <use x="407.242188" y="672" xlink:href="#d"/>
 </g>
</svg>
