<?xml version="1.0" encoding="UTF-8"?>
<svg width="700pt" height="700pt" version="1.1" viewBox="0 0 700 550" xmlns="http://www.w3.org/2000/svg" xmlns:xlink="http://www.w3.org/1999/xlink">
 <g fill="white">
  <path d="m218.8 330.4-37.184 171.56c-1.9531 9.0117-10.809 14.812-19.98 12.863-9.0664-1.9727-14.824-10.91-12.863-19.98l35.637-164.45z"/>
  <path d="m319.62 330.4-26 121.12c-1.9258 9-10.801 14.852-19.945 12.898-9.0703-1.9414-14.844-10.875-12.898-19.945l24.484-114.07z"/>
  <path d="m420.4 330.4-37.184 171.56c-1.9531 9.0117-10.809 14.812-19.98 12.863-9.0664-1.9727-14.824-10.91-12.863-19.98l35.637-164.45z"/>
  <path d="m521.23 330.4-26 121.13c-1.9258 9-10.801 14.852-19.945 12.898-9.0703-1.9414-14.844-10.875-12.898-19.945l24.48-114.09z"/>
  <path d="m215.6 296.8h285.6c53.57 0 94.02-49.531 81.801-103.43-12.035-53.145-71.934-80.023-119.79-55.344-14.52-54.242-63.949-93.23-121.62-93.23-41.082 0-79.324 20.082-102.8 53.207-56.902-13.992-114.3 26-122.8 82.363-9.375 61.738 38.074 116.43 99.602 116.43z"/>
  <use x="70" y="644" xlink:href="#u"/>
  <use x="90.550781" y="644" xlink:href="#b"/>
  <use x="104.359375" y="644" xlink:href="#a"/>
  <use x="123.347656" y="644" xlink:href="#d"/>
  <use x="142.242188" y="644" xlink:href="#c"/>
  <use x="155.628906" y="644" xlink:href="#a"/>
  <use x="174.617188" y="644" xlink:href="#k"/>
  <use x="204.410156" y="644" xlink:href="#g"/>
  <use x="224.453125" y="644" xlink:href="#f"/>
  <use x="252.453125" y="644" xlink:href="#j"/>
  <use x="274.121094" y="644" xlink:href="#f"/>
  <use x="292.375" y="644" xlink:href="#i"/>
  <use x="312.304688" y="644" xlink:href="#g"/>
  <use x="342.097656" y="644" xlink:href="#t"/>
  <use x="352.515625" y="644" xlink:href="#b"/>
  <use x="366.324219" y="644" xlink:href="#d"/>
  <use x="385.21875" y="644" xlink:href="#s"/>
  <use x="411.085938" y="644" xlink:href="#d"/>
  <use x="429.980469" y="644" xlink:href="#h"/>
  <use x="70" y="672" xlink:href="#r"/>
  <use x="82.183594" y="672" xlink:href="#b"/>
  <use x="95.992188" y="672" xlink:href="#e"/>
  <use x="115.226562" y="672" xlink:href="#q"/>
  <use x="154.152344" y="672" xlink:href="#c"/>
  <use x="167.535156" y="672" xlink:href="#p"/>
  <use x="187.46875" y="672" xlink:href="#a"/>
  <use x="216.207031" y="672" xlink:href="#o"/>
  <use x="239.640625" y="672" xlink:href="#e"/>
  <use x="258.878906" y="672" xlink:href="#i"/>
  <use x="278.8125" y="672" xlink:href="#h"/>
  <use x="308.492188" y="672" xlink:href="#n"/>
  <use x="329.015625" y="672" xlink:href="#b"/>
  <use x="342.820312" y="672" xlink:href="#e"/>
  <use x="362.058594" y="672" xlink:href="#m"/>
  <use x="371.65625" y="672" xlink:href="#a"/>
  <use x="390.648438" y="672" xlink:href="#l"/>
  <use x="407.242188" y="672" xlink:href="#c"/>
 </g>
</svg>
