<?xml version="1.0" encoding="UTF-8"?>
<svg width="700pt" height="700pt" version="1.1" viewBox="0 0 700 550" xmlns="http://www.w3.org/2000/svg" xmlns:xlink="http://www.w3.org/1999/xlink">
 <g fill="white">
  <path d="m334.45 208.75s-120.04 119.51-120.04 209.2c0 66.254 53.789 120.03 120.04 120.03 66.25 0 120.04-53.777 120.04-120.03 0-89.695-120.04-209.2-120.04-209.2z" fill-rule="evenodd"/>
  <path d="m166.93 113.27s-65.773 65.48-65.773 114.63c0 36.305 29.473 65.773 65.773 65.773 36.301 0 65.773-29.469 65.773-65.773 0-49.148-65.773-114.63-65.773-114.63z" fill-rule="evenodd"/>
  <path d="m510.69 22.016s-88.148 87.766-88.148 153.63c0 48.656 39.5 88.148 88.148 88.148 48.656 0 88.156-39.492 88.156-88.148 0-65.867-88.156-153.63-88.156-153.63z" fill-rule="evenodd"/>
  <path d="m293.14 29.602s-41.309 41.125-41.309 71.996c0 22.801 18.508 41.309 41.309 41.309s41.312-18.508 41.312-41.309c0-30.871-41.312-71.996-41.312-71.996z" fill-rule="evenodd"/>
  <path d="m557.53 286.36s-41.309 41.129-41.309 71.996c0 22.801 18.512 41.309 41.309 41.309 22.801 0 41.312-18.508 41.312-41.309 0-30.867-41.312-71.996-41.312-71.996z" fill-rule="evenodd"/>
  <use x="70" y="644" xlink:href="#v"/>
  <use x="90.550781" y="644" xlink:href="#d"/>
  <use x="104.359375" y="644" xlink:href="#c"/>
  <use x="123.347656" y="644" xlink:href="#b"/>
  <use x="142.242188" y="644" xlink:href="#a"/>
  <use x="155.628906" y="644" xlink:href="#c"/>
  <use x="174.617188" y="644" xlink:href="#m"/>
  <use x="204.410156" y="644" xlink:href="#l"/>
  <use x="224.453125" y="644" xlink:href="#k"/>
  <use x="252.453125" y="644" xlink:href="#g"/>
  <use x="272.972656" y="644" xlink:href="#b"/>
  <use x="291.867188" y="644" xlink:href="#f"/>
  <use x="311.800781" y="644" xlink:href="#j"/>
  <use x="331.734375" y="644" xlink:href="#i"/>
  <use x="357.601562" y="644" xlink:href="#b"/>
  <use x="376.496094" y="644" xlink:href="#a"/>
  <use x="399.628906" y="644" xlink:href="#u"/>
  <use x="419.796875" y="644" xlink:href="#d"/>
  <use x="433.601562" y="644" xlink:href="#t"/>
  <use x="443.203125" y="644" xlink:href="#h"/>
  <use x="452.796875" y="644" xlink:href="#b"/>
  <use x="471.695312" y="644" xlink:href="#f"/>
  <use x="491.625" y="644" xlink:href="#a"/>
  <use x="505.011719" y="644" xlink:href="#b"/>
  <use x="523.90625" y="644" xlink:href="#i"/>
  <use x="549.773438" y="644" xlink:href="#e"/>
  <use x="569.007812" y="644" xlink:href="#f"/>
  <use x="588.945312" y="644" xlink:href="#s"/>
  <use x="70" y="672" xlink:href="#r"/>
  <use x="82.183594" y="672" xlink:href="#d"/>
  <use x="95.992188" y="672" xlink:href="#e"/>
  <use x="115.226562" y="672" xlink:href="#q"/>
  <use x="154.152344" y="672" xlink:href="#a"/>
  <use x="167.535156" y="672" xlink:href="#p"/>
  <use x="187.46875" y="672" xlink:href="#c"/>
  <use x="216.207031" y="672" xlink:href="#o"/>
  <use x="239.640625" y="672" xlink:href="#e"/>
  <use x="258.878906" y="672" xlink:href="#j"/>
  <use x="278.8125" y="672" xlink:href="#f"/>
  <use x="308.492188" y="672" xlink:href="#g"/>
  <use x="329.015625" y="672" xlink:href="#d"/>
  <use x="342.820312" y="672" xlink:href="#e"/>
  <use x="362.058594" y="672" xlink:href="#h"/>
  <use x="371.65625" y="672" xlink:href="#c"/>
  <use x="390.648438" y="672" xlink:href="#n"/>
  <use x="407.242188" y="672" xlink:href="#a"/>
 </g>
</svg>
