<?xml version="1.0" encoding="UTF-8"?>
<svg width="700pt" height="700pt" version="1.1" viewBox="0 0 700 550" xmlns="http://www.w3.org/2000/svg">
 <path fill="white" stroke-width="8px" stroke="white" d="m283.56 26.215c-4.8047 0.019531-8.6953 3.9102-8.7148 8.7188v16.801h-68.785c-20.457 0-37.273 16.562-37.273 36.949v408.15c0 20.387 16.816 36.949 37.273 36.949h287.81c20.457 0 37.34-16.562 37.34-36.949v-408.16c0-20.387-16.887-36.949-37.34-36.949h-68.719v-16.797c-0.019532-4.8086-3.9102-8.6992-8.7148-8.7188zm8.7852 17.5h115.3v33.531h-115.3zm-86.285 25.516h68.785v16.73c-0.019531 4.832 3.8828 8.7656 8.7148 8.7852h132.88c4.832-0.019532 8.7344-3.9531 8.7148-8.7852v-16.73h68.719c11.164 0 19.84 8.5547 19.84 19.449v408.16c0 10.891-8.6758 19.449-19.84 19.449h-287.81c-11.164 0-19.773-8.5547-19.773-19.449v-408.16c0-10.891 8.6094-19.449 19.773-19.449zm52.055 77.316c-2.3242-0.011719-4.5547 0.90625-6.2031 2.543-1.6484 1.6367-2.5781 3.8633-2.582 6.1875-0.007812 2.332 0.91406 4.5742 2.5625 6.2227 1.6484 1.6484 3.8906 2.5703 6.2227 2.5625h183.77c2.332 0.007812 4.5742-0.91406 6.2227-2.5625 1.6484-1.6484 2.5703-3.8906 2.5625-6.2227-0.003907-2.3242-0.93359-4.5508-2.582-6.1875-1.6484-1.6367-3.8789-2.5547-6.2031-2.543zm0 76.547v-0.003906c-2.332-0.007813-4.5742 0.91406-6.2227 2.5625-1.6484 1.6523-2.5703 3.8906-2.5625 6.2227 0.007813 2.3203 0.94141 4.543 2.5859 6.1758 1.6484 1.6367 3.8789 2.5508 6.1992 2.5391h183.77c2.3203 0.011718 4.5508-0.90234 6.1992-2.5391 1.6445-1.6328 2.5781-3.8555 2.5859-6.1758 0.007812-2.332-0.91406-4.5703-2.5625-6.2227-1.6484-1.6484-3.8906-2.5703-6.2227-2.5625zm119.75 70.992-0.003907-0.003907c-2.332-0.007812-4.5703 0.91406-6.2188 2.5625-1.6484 1.6484-2.5742 3.8906-2.5625 6.2227v45.988h-53.73c-2.3242 0.003906-4.5508 0.93359-6.1875 2.582-1.6406 1.6445-2.5547 3.8789-2.5469 6.2031v34.164h-53.801l0.003906-0.003907c-4.8125 0.019531-8.707 3.9219-8.7188 8.7344v52.125c0.019532 4.8047 3.9102 8.6953 8.7188 8.7148h187.58c4.8047-0.019531 8.6953-3.9102 8.7148-8.7148v-149.79c0.019531-4.832-3.8828-8.7656-8.7148-8.7852zm8.7148 17.5 45.031-0.003907v132.29h-45.031v-86.234c0.003907-0.17969 0.003907-0.35547 0-0.53125zm-62.516 54.773h45.016v77.52h-45.016zm-62.465 42.965h45.016v34.555h-45.016z"/>
</svg>
