<?xml version="1.0" encoding="UTF-8"?>
<svg width="700pt" height="700pt" version="1.1" viewBox="0 0 700 550" xmlns="http://www.w3.org/2000/svg">
 <path fill="white" stroke-width="7px" stroke="white" d="m156.22 26.215c-21.242 0-38.621 17.359-38.621 38.57l-0.003906 430.43c0 21.211 17.383 38.57 38.621 38.57h167.5c2.3203-0.007812 4.543-0.94141 6.1797-2.5859 1.6328-1.6484 2.5469-3.8789 2.5352-6.1992-0.015626-4.8047-3.9062-8.6953-8.7148-8.7148h-167.5c-11.875 0-21.121-9.2891-21.121-21.07l-0.003906-430.43c0-11.781 9.2461-21.07 21.121-21.07h210.91v72.871c0 21.211 17.383 38.555 38.621 38.555l73.047-0.003906v133c0.007813 2.3203 0.94141 4.543 2.5859 6.1758 1.6484 1.6328 3.8789 2.5469 6.1992 2.5391 4.8125-0.007812 8.7148-3.9023 8.7305-8.7148v-141.71c-0.011719-0.12891-0.03125-0.26172-0.050782-0.39062-0.027344-0.46875-0.089844-0.92969-0.1875-1.3867-0.046875-0.25391-0.10547-0.50391-0.17188-0.75-0.17969-0.57813-0.41406-1.1328-0.70312-1.6602-0.046875-0.10156-0.097656-0.20703-0.15234-0.30859-0.37109-0.62109-0.82031-1.1953-1.332-1.707l-111.66-111.43c-0.73828-0.71484-1.5938-1.293-2.5312-1.7109-0.23047-0.097657-0.46094-0.19141-0.69922-0.27344-0.76953-0.27734-1.5781-0.44141-2.3945-0.49609-0.16797-0.039062-0.33984-0.070312-0.51172-0.10156zm228.41 29.84 28.523 28.453 53.219 53.133h-60.617c-11.875 0-21.121-9.2734-21.121-21.055zm-124.28 53.422c-44.816 0-81.312 36.453-81.312 81.195s36.496 81.195 81.312 81.195 81.383-36.453 81.383-81.195-36.566-81.195-81.383-81.195zm0 17.5c35.383 0 63.883 28.434 63.883 63.695s-28.5 63.695-63.883 63.695c-18.688 0-35.438-7.9336-47.082-20.609l51.473-29.652c2.707-1.5547 4.3789-4.4336 4.3945-7.5547v-68.922h-17.5v63.812l-47.613 27.395 7.4492 12.867c-9.3281-11.07-14.938-25.379-14.938-41.031 0-35.262 28.43-63.695 63.812-63.695zm-68.531 189.2c-2.3203-0.007813-4.5508 0.90234-6.1953 2.5391-1.6484 1.6328-2.5781 3.8555-2.5898 6.1758 0.011719 2.3203 0.94141 4.543 2.5898 6.1797 1.6445 1.6328 3.875 2.5469 6.1953 2.5391h230.27c2.3203 0.007813 4.5508-0.90625 6.1953-2.5391 1.6484-1.6367 2.5781-3.8594 2.5859-6.1797-0.007813-2.3203-0.9375-4.543-2.5859-6.1758-1.6445-1.6367-3.875-2.5469-6.1953-2.5391zm315.46 12.973c-4.8047 0.019531-8.6953 3.9102-8.7148 8.7148v59.695h-57.609c-2.3242 0.003906-4.5508 0.93359-6.1875 2.582-1.6406 1.6445-2.5547 3.8789-2.5469 6.2031v44.828l-57.609-0.003906c-2.332-0.007813-4.5703 0.91406-6.2227 2.5625-1.6484 1.6523-2.5703 3.8906-2.5625 6.2227v65.043c-0.007813 2.332 0.91406 4.5742 2.5625 6.2227 1.6523 1.6484 3.8906 2.5703 6.2227 2.5625h199.06c2.3242-0.003906 4.5508-0.93359 6.1875-2.582s2.5547-3.8789 2.5469-6.2031v-187.13c-0.019531-4.8125-3.9219-8.707-8.7344-8.7148zm8.7852 17.5h48.824v169.63h-48.824zm-323.02 35.152c-2.3203-0.007813-4.5508 0.90234-6.1953 2.5391-1.6484 1.6328-2.5781 3.8555-2.5898 6.1758-0.007813 2.332 0.91406 4.5742 2.5625 6.2227 1.6523 1.6484 3.8906 2.5703 6.2227 2.5625h105.8c2.332 0.007812 4.5703-0.91406 6.2188-2.5625 1.6523-1.6484 2.5742-3.8906 2.5625-6.2227-0.007812-2.3203-0.9375-4.543-2.5859-6.1758-1.6484-1.6367-3.875-2.5469-6.1953-2.5391zm256.69 33.258h48.824l0.003906 101.22h-48.828zm-66.41 53.609h48.895v47.613h-48.895z" fill-rule="evenodd"/>
</svg>
