<?xml version="1.0" encoding="UTF-8"?>
<svg width="700pt" height="600pt" version="1.1" viewBox="0 0 700 600" xmlns="http://www.w3.org/2000/svg">
 <g stroke-width="5" stroke="white" fill="white">
  <path d="m325.57 276.85c-13.883 0-25.176 11.293-25.176 25.176 0 3.5 0.79297 6.8828 2.1484 10.012l-67.293 70.188c-3.5508-1.918-7.4219-3.293-11.738-3.293-13.883 0-25.176 11.27-25.176 25.152 0 13.883 11.293 25.176 25.176 25.176 13.883 0 25.176-11.293 25.176-25.176 0-2.6133-0.74609-4.9922-1.4922-7.375l68.602-71.539c3.0586 1.3086 6.3711 2.0312 9.7773 2.0312 3.3594 0 6.5352-0.72266 9.4727-1.9141l38.035 38.266c-1.0742 2.8242-1.6328 5.8086-1.6328 8.8906 0 13.883 11.293 25.176 25.176 25.176s25.176-11.293 25.176-25.176c0-3.6406-0.86328-7.0703-2.2617-10.219l44.988-46.293c3.6172 2.0078 7.5586 3.4531 11.969 3.4531 13.883 0 25.152-11.293 25.152-25.176 0-13.883-11.27-25.152-25.152-25.152-13.883 0-25.176 11.27-25.176 25.152 0 2.4961 0.74609 4.7852 1.4219 7.0703l-46.574 47.902c-2.9648-1.2148-6.1602-1.9375-9.5664-1.9375-3.8047 0-7.4648 0.95703-10.828 2.5898l-37.355-37.566c1.4219-3.1484 2.2852-6.5781 2.2852-10.242 0.019531-13.883-11.25-25.176-25.133-25.176zm-102.06 133.72c-3.5703 0-6.4883-2.918-6.4883-6.4883 0-3.5703 2.918-6.4648 6.4883-6.4648 3.5703 0 6.4883 2.8945 6.4883 6.4648-0.003906 3.5703-2.9219 6.4883-6.4883 6.4883zm97.484-103.95c-1.2617-1.2383-1.9141-2.8711-1.9141-4.5977 0-3.5703 2.918-6.4883 6.4883-6.4883 3.5703 0 6.4648 2.918 6.4648 6.4883 0.023438 5.2969-7.3281 8.3047-11.039 4.5977zm155.49-18.879c3.5703 0 6.4648 2.8945 6.4648 6.4648 0 3.5703-2.8945 6.4883-6.4648 6.4883-3.5703 0-6.4883-2.918-6.4883-6.4883 0.003906-3.5703 2.9219-6.4648 6.4883-6.4648zm-73.383 84.676c0 7.1641-12.996 7.1641-12.996 0 0-2.0078 0.86328-3.4062 1.5859-4.2695 1.2852-1.4453 3.0117-2.2383 4.8984-2.2383 3.5977 0.023438 6.5117 2.9375 6.5117 6.5078z"/>
  <path d="m174.84 557.18h350.33c10.078 0 18.27-8.2148 18.27-18.27v-442.7c0-10.102-8.2148-18.293-18.293-18.293h-58.242c-4.3633-15.145-17.453-24.922-34.812-25.082l-10.266-0.046875c-10.781-28.887-38.941-49.07-71.145-49.957-32.809 0-61.109 19.715-72.426 49.676l-10.035 0.39844c-17.758 0.11719-30.801 9.8242-35.188 25.387h-58.191c-10.078 0-18.27 8.2148-18.27 18.27v442.38c0 10.059 8.2148 18.246 18.27 18.246zm93.801-485.64 16.824-0.65234c4.0352-0.16406 7.5117-2.8945 8.6094-6.7891 7.1875-25.48 29.914-42.582 56.352-42.605 26.25 0.72266 49.094 18.41 55.578 43.051 1.0977 4.2227 4.9922 8.1914 9.3086 6.9531l5.6484-0.046875 10.965 0.070312c10.711 0.09375 17.195 6.043 17.828 16.309 0.046875 0.67578 0.30469 1.2383 0.48828 1.8672v25.059h-200.01v-26.625c0.74609-10.754 7-16.52 18.41-16.59zm-37.102 25.41v27.113c0 5.1562 4.1992 9.332 9.332 9.332h218.68c5.1562 0 9.332-4.1992 9.332-9.332v-27.535l55.859-0.32812v442.31l-349.48 0.39844-0.42187-441.96z"/>
  <path d="m203.4 196.91h131.2c5.1562 0 9.332-4.1992 9.332-9.332s-4.1992-9.332-9.332-9.332l-131.2-0.003906c-5.1562 0-9.332 4.1992-9.332 9.332-0.003906 5.1367 4.1719 9.3359 9.332 9.3359z"/>
  <path d="m203.4 241.57h108.88c5.1562 0 9.332-4.1992 9.332-9.332 0-5.1328-4.1992-9.332-9.332-9.332l-108.88-0.003906c-5.1562 0-9.332 4.1992-9.332 9.332-0.003906 5.1367 4.1719 9.3359 9.332 9.3359z"/>
  <path d="m499.05 505.54h-142.82c-5.1562 0-9.332 4.1992-9.332 9.332 0 5.1328 4.1992 9.332 9.332 9.332h142.82c5.1562 0 9.332-4.1992 9.332-9.332 0-5.1328-4.1992-9.332-9.332-9.332z"/>
  <path d="m487.39 473.43c-5.1562 0-9.332 4.1992-9.332 9.332s4.1992 9.332 9.332 9.332h11.668c5.1562 0 9.332-4.1992 9.332-9.332s-4.1992-9.332-9.332-9.332z"/>
  <path d="m434.26 492.1c5.1562 0 9.332-4.1992 9.332-9.332 0-5.1328-4.1992-9.332-9.332-9.332h-13.277c-5.1562 0-9.332 4.1992-9.332 9.332 0 5.1328 4.1992 9.332 9.332 9.332z"/>
  <path d="m356.23 492.1h11.668c5.1562 0 9.332-4.1992 9.332-9.332 0-5.1328-4.1992-9.332-9.332-9.332h-11.668c-5.1562 0-9.332 4.1992-9.332 9.332 0 5.1289 4.1758 9.332 9.332 9.332z"/>
 </g>
</svg>
