<?xml version="1.0" encoding="UTF-8"?>
<svg width="700pt" height="600pt" version="1.1" viewBox="0 0 700 600" xmlns="http://www.w3.org/2000/svg" xmlns:xlink="http://www.w3.org/1999/xlink">
 <g stroke-width="0.3" stroke="white" fill="white">
  <path d="m306.02 123.52c5.4531-1.5312 9.4375-6.1992 10.113-11.82l6.2656-52.582c1.2031-9.7539 9.5039-17.113 19.312-17.113h16.582c9.8047 0 18.105 7.3594 19.305 17.059l6.2734 52.641c0.67188 5.6289 4.6719 10.297 10.129 11.824 14.598 4.082 28.523 10.172 41.398 18.098 6.5938 4.0508 15.215 2.0078 19.262-4.582 4.0508-6.5859 2-15.207-4.582-19.262-12.414-7.6406-25.652-13.82-39.48-18.441l-5.1992-43.648c-2.9375-23.766-23.188-41.688-47.109-41.688h-16.582c-23.922 0-44.172 17.922-47.109 41.742l-5.1953 43.602c-24.141 8.1016-46.508 20.996-65.527 37.773l-40.477-17.219c-21.984-9.3711-47.609-0.80859-59.594 19.895l-8.3555 14.359c-12.016 20.766-6.5625 47.281 12.664 61.664l35.148 26.418c-2.6445 12.922-3.9414 25.355-3.9414 37.766s1.2969 24.844 3.9414 37.766l-35.121 26.398c-19.254 14.398-24.707 40.918-12.676 61.711l8.3242 14.305c8.7227 15.07 24.648 23.707 41.125 23.707 6.1914 0 12.457-1.2188 18.453-3.7695l17.586-7.4492c7.1211-3.0156 10.449-11.234 7.4336-18.352-3.0117-7.1211-11.25-10.453-18.348-7.4336l-17.621 7.4609c-8.9844 3.8203-19.48 0.30078-24.406-8.2188l-8.3242-14.305c-4.9102-8.4805-2.6641-19.332 5.25-25.25l42.395-31.863c4.4961-3.3789 6.5352-9.1211 5.1719-14.574-3.4883-14.016-5.1836-27.141-5.1836-40.133s1.6953-26.117 5.1836-40.129c1.3633-5.457-0.67969-11.195-5.1719-14.574l-42.422-31.883c-7.8867-5.9023-10.133-16.75-5.2383-25.207l8.3555-14.359c4.918-8.5 15.395-12.016 24.402-8.1875l48.836 20.777c5.1992 2.2109 11.215 1.082 15.258-2.8633 19.328-18.859 43.355-32.711 69.496-40.059z"/>
  <path d="m571.88 344.18-35.148-26.418c2.6484-12.922 3.9453-25.355 3.9453-37.766s-1.2969-24.844-3.9414-37.766l35.121-26.398c19.254-14.398 24.707-40.918 12.676-61.711l-8.3242-14.305c-12-20.723-37.637-29.297-59.57-19.938l-4.7656 2.0156c-7.125 3.0117-10.457 11.227-7.4414 18.348 3.0117 7.1211 11.238 10.441 18.348 7.4375l4.8008-2.0273c8.9805-3.8359 19.473-0.30469 24.406 8.2188l8.3242 14.305c4.9102 8.4805 2.6641 19.332-5.25 25.25l-42.395 31.863c-4.4961 3.3789-6.5352 9.1211-5.1719 14.574 3.4883 14.016 5.1836 27.141 5.1836 40.133s-1.6953 26.117-5.1836 40.129c-1.3633 5.457 0.67969 11.195 5.1719 14.574l42.422 31.883c7.8867 5.9023 10.133 16.75 5.2383 25.207l-8.3555 14.359c-4.918 8.5-15.391 12.027-24.391 8.1914l-48.723-20.777c-5.207-2.2188-11.207-1.0938-15.242 2.832-19.465 18.887-43.543 32.746-69.641 40.082-5.4531 1.5312-9.4375 6.1992-10.113 11.82l-6.2656 52.582c-1.1992 9.7578-9.5 17.117-19.309 17.117h-16.582c-9.8047 0-18.105-7.3594-19.305-17.059l-6.2734-52.641c-0.66797-5.6211-4.6523-10.281-10.102-11.816-18.934-5.3359-36.453-13.852-52.078-25.312-6.2227-4.5703-14.996-3.2227-19.566 3.0117-4.5703 6.2344-3.2266 14.996 3.0078 19.57 15.82 11.602 33.281 20.629 52.012 26.902l5.1992 43.66c2.9375 23.762 23.188 41.684 47.109 41.684h16.582c23.922 0 44.172-17.922 47.109-41.742l5.1953-43.602c24.105-8.0898 46.5-20.988 65.613-37.777l40.391 17.223c21.988 9.3672 47.609 0.80859 59.594-19.895l8.3555-14.359c12.012-20.766 6.5625-47.285-12.668-61.664z"/>
  <path d="m350 190.77c-49.195 0-89.223 40.027-89.223 89.227s40.027 89.227 89.223 89.227 89.223-40.027 89.223-89.227-40.027-89.227-89.223-89.227zm0 150.45c-33.758 0-61.223-27.469-61.223-61.227s27.465-61.227 61.223-61.227 61.223 27.469 61.223 61.227-27.465 61.227-61.223 61.227z"/>
  <path d="m478.68 165.31c3.6953 0 7.2852-1.5117 9.9141-4.1445 2.6289-2.5742 4.0859-6.1602 4.0859-9.8555s-1.4531-7.3359-4.0859-9.9102c-5.2656-5.2109-14.562-5.2109-19.824 0-2.5742 2.5742-4.0898 6.2148-4.0898 9.9102s1.5156 7.2773 4.0898 9.8555c2.6328 2.6328 6.2734 4.1445 9.9102 4.1445z"/>
  <use x="70" y="644" xlink:href="#t"/>
  <use x="90.550781" y="644" xlink:href="#b"/>
  <use x="104.359375" y="644" xlink:href="#c"/>
  <use x="123.347656" y="644" xlink:href="#a"/>
  <use x="142.242188" y="644" xlink:href="#d"/>
  <use x="155.628906" y="644" xlink:href="#c"/>
  <use x="174.617188" y="644" xlink:href="#f"/>
  <use x="204.410156" y="644" xlink:href="#m"/>
  <use x="224.453125" y="644" xlink:href="#l"/>
  <use x="252.453125" y="644" xlink:href="#k"/>
  <use x="269.117188" y="644" xlink:href="#a"/>
  <use x="288.011719" y="644" xlink:href="#j"/>
  <use x="307.945312" y="644" xlink:href="#a"/>
  <use x="326.839844" y="644" xlink:href="#b"/>
  <use x="340.648438" y="644" xlink:href="#a"/>
  <use x="369.289062" y="644" xlink:href="#i"/>
  <use x="378.890625" y="644" xlink:href="#h"/>
  <use x="398.820312" y="644" xlink:href="#g"/>
  <use x="418.757812" y="644" xlink:href="#a"/>
  <use x="437.648437" y="644" xlink:href="#f"/>
  <use x="457.695312" y="644" xlink:href="#s"/>
  <use x="467.289062" y="644" xlink:href="#b"/>
  <use x="70" y="672" xlink:href="#r"/>
  <use x="82.183594" y="672" xlink:href="#b"/>
  <use x="95.992188" y="672" xlink:href="#e"/>
  <use x="115.226562" y="672" xlink:href="#q"/>
  <use x="154.152344" y="672" xlink:href="#d"/>
  <use x="167.535156" y="672" xlink:href="#j"/>
  <use x="187.46875" y="672" xlink:href="#c"/>
  <use x="216.207031" y="672" xlink:href="#p"/>
  <use x="239.640625" y="672" xlink:href="#e"/>
  <use x="258.878906" y="672" xlink:href="#h"/>
  <use x="278.8125" y="672" xlink:href="#g"/>
  <use x="308.492188" y="672" xlink:href="#o"/>
  <use x="329.015625" y="672" xlink:href="#b"/>
  <use x="342.820312" y="672" xlink:href="#e"/>
  <use x="362.058594" y="672" xlink:href="#i"/>
  <use x="371.65625" y="672" xlink:href="#c"/>
  <use x="390.648438" y="672" xlink:href="#n"/>
  <use x="407.242188" y="672" xlink:href="#d"/>
 </g>
</svg>
