<?xml version="1.0" encoding="UTF-8"?>
<svg width="700pt" height="600pt" version="1.1" viewBox="0 0 700 600" xmlns="http://www.w3.org/2000/svg" xmlns:xlink="http://www.w3.org/1999/xlink">
 <g fill='white'>
  <path d="m605.24 346.96-52.965-30.574c4.2891-24.078 4.2891-48.723 0-72.801l52.965-30.574c5.5156-3.1836 8.0742-9.7773 6.1484-15.848-12.082-37.887-32.223-72.715-59.035-102.08-4.2969-4.707-11.285-5.7852-16.801-2.5938l-52.922 30.562c-18.688-15.77-40.02-28.105-63.012-36.43v-61.121c0.003906-6.3789-4.4414-11.898-10.672-13.254-38.844-8.4609-79.055-8.4609-117.9 0-6.2266 1.3633-10.668 6.8828-10.66 13.258v61.117c-22.996 8.3242-44.332 20.66-63.023 36.43l-52.941-30.562h0.003907c-5.5156-3.1914-12.508-2.1133-16.801 2.5938-26.797 29.375-46.922 64.199-58.996 102.08-1.9258 6.0742 0.63672 12.664 6.1562 15.848l52.957 30.574c-4.3008 24.078-4.3008 48.723 0 72.801l-52.988 30.574c-5.5195 3.1836-8.0781 9.7812-6.1484 15.852 12.086 37.891 32.223 72.715 59.035 102.09 4.2969 4.7031 11.285 5.7812 16.801 2.5938l52.922-30.566c18.691 15.77 40.031 28.102 63.027 36.426v61.129c-0.003906 6.3711 4.4336 11.887 10.656 13.25 38.84 8.5078 79.059 8.5078 117.9 0 6.2266-1.3594 10.664-6.875 10.66-13.25v-61.129c22.996-8.3242 44.332-20.656 63.023-36.43l52.941 30.57h-0.003907c5.5156 3.1875 12.508 2.1094 16.801-2.5938 26.797-29.375 46.922-64.199 58.996-102.09 1.9336-6.0664-0.61328-12.66-6.125-15.852zm-255.24 50.105c-31.059 0-60.848-12.34-82.809-34.305-21.965-21.961-34.301-51.754-34.297-82.812 0.003907-31.062 12.348-60.848 34.312-82.809 21.969-21.957 51.762-34.289 82.82-34.281 31.062 0.003906 60.848 12.352 82.801 34.32 21.957 21.973 34.289 51.766 34.277 82.824-0.039063 31.043-12.391 60.805-34.344 82.758-21.953 21.949-51.719 34.297-82.762 34.328zm89.965-117.06c-0.003906 23.859-9.4844 46.738-26.359 63.609-16.875 16.867-39.758 26.34-63.617 26.34-23.859-0.003907-46.742-9.4844-63.609-26.359-16.871-16.871-26.348-39.754-26.344-63.613 0-23.859 9.4805-46.742 26.352-63.613 16.871-16.867 39.754-26.348 63.613-26.348 23.855 0.027344 46.727 9.5156 63.594 26.387 16.863 16.871 26.352 39.742 26.371 63.598z"/>
  <use x="70" y="648.421875" xlink:href="#t"/>
  <use x="91.628906" y="648.421875" xlink:href="#b"/>
  <use x="106.164062" y="648.421875" xlink:href="#a"/>
  <use x="126.15625" y="648.421875" xlink:href="#f"/>
  <use x="146.042969" y="648.421875" xlink:href="#c"/>
  <use x="160.132812" y="648.421875" xlink:href="#a"/>
  <use x="180.125" y="648.421875" xlink:href="#e"/>
  <use x="211.480469" y="648.421875" xlink:href="#k"/>
  <use x="232.582031" y="648.421875" xlink:href="#j"/>
  <use x="262.054688" y="648.421875" xlink:href="#i"/>
  <use x="283.28125" y="648.421875" xlink:href="#h"/>
  <use x="304.265625" y="648.421875" xlink:href="#g"/>
  <use x="325.246094" y="648.421875" xlink:href="#f"/>
  <use x="345.136719" y="648.421875" xlink:href="#b"/>
  <use x="359.671875" y="648.421875" xlink:href="#e"/>
  <use x="380.769531" y="648.421875" xlink:href="#s"/>
  <use x="70" y="677.894531" xlink:href="#r"/>
  <use x="82.824219" y="677.894531" xlink:href="#b"/>
  <use x="97.359375" y="677.894531" xlink:href="#d"/>
  <use x="117.605469" y="677.894531" xlink:href="#q"/>
  <use x="158.578125" y="677.894531" xlink:href="#c"/>
  <use x="172.667969" y="677.894531" xlink:href="#p"/>
  <use x="193.652344" y="677.894531" xlink:href="#a"/>
  <use x="223.902344" y="677.894531" xlink:href="#o"/>
  <use x="248.570312" y="677.894531" xlink:href="#d"/>
  <use x="268.816406" y="677.894531" xlink:href="#h"/>
  <use x="289.800781" y="677.894531" xlink:href="#g"/>
  <use x="321.042969" y="677.894531" xlink:href="#n"/>
  <use x="342.644531" y="677.894531" xlink:href="#b"/>
  <use x="357.179688" y="677.894531" xlink:href="#d"/>
  <use x="377.429688" y="677.894531" xlink:href="#m"/>
  <use x="387.53125" y="677.894531" xlink:href="#a"/>
  <use x="407.523437" y="677.894531" xlink:href="#l"/>
  <use x="424.992188" y="677.894531" xlink:href="#c"/>
 </g>
</svg>
