<?xml version="1.0" encoding="UTF-8"?>
<svg width="700pt" height="700pt" version="1.1" viewBox="0 0 700 550" xmlns="http://www.w3.org/2000/svg">
 <path fill="white" d="m564.67 375.67-46.668-28 21-4.668c11.668-2.332 18.668-16.332 16.332-28-2.332-11.668-16.332-18.668-28-16.332l-65.332 18.668-65.332-37.336 63-37.332 65.332 18.668c11.668 2.332 25.668-4.668 28-16.332 2.332-11.668-4.668-25.668-16.332-28l-18.668-7.0039 46.668-28c11.668-7 14-21 9.332-32.668-7-11.668-21-14-32.668-9.332l-51.332 32.668 7-25.668c2.332-11.668-4.668-25.668-16.332-28-11.668-2.332-25.668 4.668-28 16.332l-18.668 70-60.668 35v-74.664l49-49c9.332-9.332 9.332-23.332 0-32.668-9.332-9.332-23.332-9.332-32.668 0l-16.332 16.332v-53.664c0-14-9.332-23.332-23.332-23.332s-23.332 9.332-23.332 23.332v58.332l-18.668-18.668c-9.332-9.332-23.332-9.332-32.668 0-9.332 9.332-9.332 23.332 0 32.668l51.336 51.332v70l-60.668-35-18.668-70c-2.332-14-16.332-21-28-18.664-11.664 2.332-21 16.332-16.332 30.332l7 25.668-51.332-30.336c-9.3359-4.6641-25.668-2.332-30.336 9.3359-7 11.664-2.332 25.664 7 32.664l46.668 28-21 4.668c-11.668 2.332-18.668 16.332-16.332 28 2.332 11.668 16.332 18.668 28 16.332l65.332-18.668 65.332 37.336-63 37.332-65.332-18.668c-11.668-2.332-25.668 4.668-28 16.332-2.332 11.668 4.668 25.668 16.332 28l18.668 7.0039-46.668 28c-11.668 7-14 21-9.332 32.668 7 11.668 21 14 32.668 9.332l51.332-32.668-7 25.668c-2.332 11.668 4.668 25.668 16.332 28 11.668 2.332 25.668-4.668 28-16.332l18.668-70 60.668-35v72.332l-49 49c-9.332 9.332-9.332 23.332 0 32.668 9.332 9.332 23.332 9.332 32.668 0l16.332-16.332v55.996c0 14 9.332 23.332 23.332 23.332s23.332-9.332 23.332-23.332v-58.332l18.668 18.668c9.332 9.332 23.332 9.332 32.668 0 9.332-9.332 9.332-23.332 0-32.668l-51.336-51.332v-70l60.668 35 18.668 70c2.332 11.668 16.332 18.668 28 16.332 11.668-2.332 18.668-16.332 16.332-28l-7-25.668 49 28c11.668 7 25.668 2.332 32.668-9.332 7-9.332 2.332-23.332-7-30.332z"/>
</svg>
