<?xml version="1.0" encoding="UTF-8"?>
<svg width="700pt" height="700pt" version="1.1" viewBox="0 0 700 550" xmlns="http://www.w3.org/2000/svg" xmlns:xlink="http://www.w3.org/1999/xlink">
 <g fill="white">
  <path d="m313.93 334.59-37.043 52.141-0.003907-0.003907c-0.54687 0.77344-0.57422 1.7969-0.070312 2.5977s1.4414 1.2188 2.3711 1.0547l49.773-8.5664-17.527 147.57c-0.12891 1.0586 0.48047 2.0703 1.4766 2.4531 0.99609 0.38281 2.125 0.042968 2.7461-0.82422l115.66-162.79c0.54688-0.76953 0.57812-1.7969 0.074218-2.5977-0.50391-0.80078-1.4414-1.2148-2.375-1.0547l-49.773 8.5664 4.5781-38.543z"/>
  <path d="m570.5 204.73c-2.4492-1.1172-3.6094-3.9492-2.6484-6.4688 0.83984-2.0977 1.6094-4.2305 2.3008-6.3984 20.41-64.398-32.32-134.7-117.78-157.02-78.859-20.602-157.99 6.8711-185.79 61.836-1.3789 2.5117-4.332 3.7031-7.0664 2.8555-44.805-12.691-91.211 2.6875-106.64 36.773-9.1836 20.285-5.4336 42.875 7.8672 61.98-0.14844 0-0.29297-0.019531-0.44141-0.019531-34.41 0-62.305 24.25-62.305 54.164 0 29.914 27.895 54.164 62.309 54.164h371.45c38.797 0 70.246-24.871 70.246-55.555 0-19.348-12.527-36.367-31.5-46.309z"/>
  <use x="70" y="644" xlink:href="#u"/>
  <use x="90.550781" y="644" xlink:href="#b"/>
  <use x="104.359375" y="644" xlink:href="#a"/>
  <use x="123.347656" y="644" xlink:href="#e"/>
  <use x="142.242188" y="644" xlink:href="#c"/>
  <use x="155.628906" y="644" xlink:href="#a"/>
  <use x="174.617188" y="644" xlink:href="#j"/>
  <use x="204.410156" y="644" xlink:href="#i"/>
  <use x="224.453125" y="644" xlink:href="#h"/>
  <use x="252.453125" y="644" xlink:href="#g"/>
  <use x="280.3125" y="644" xlink:href="#e"/>
  <use x="299.210938" y="644" xlink:href="#b"/>
  <use x="313.015625" y="644" xlink:href="#t"/>
  <use x="331.640625" y="644" xlink:href="#f"/>
  <use x="351.570312" y="644" xlink:href="#s"/>
  <use x="70" y="672" xlink:href="#r"/>
  <use x="82.183594" y="672" xlink:href="#b"/>
  <use x="95.992188" y="672" xlink:href="#d"/>
  <use x="115.226562" y="672" xlink:href="#q"/>
  <use x="154.152344" y="672" xlink:href="#c"/>
  <use x="167.535156" y="672" xlink:href="#p"/>
  <use x="187.46875" y="672" xlink:href="#a"/>
  <use x="216.207031" y="672" xlink:href="#o"/>
  <use x="239.640625" y="672" xlink:href="#d"/>
  <use x="258.878906" y="672" xlink:href="#f"/>
  <use x="278.8125" y="672" xlink:href="#n"/>
  <use x="308.492188" y="672" xlink:href="#m"/>
  <use x="329.015625" y="672" xlink:href="#b"/>
  <use x="342.820312" y="672" xlink:href="#d"/>
  <use x="362.058594" y="672" xlink:href="#l"/>
  <use x="371.65625" y="672" xlink:href="#a"/>
  <use x="390.648438" y="672" xlink:href="#k"/>
  <use x="407.242188" y="672" xlink:href="#c"/>
 </g>
</svg>
