<?xml version="1.0" encoding="UTF-8"?>
<svg width="700pt" height="700pt" version="1.1" viewBox="0 0 700 550" xmlns="http://www.w3.org/2000/svg">
 <path fill="white" d="m349.73 34.5c-9.6641 0-17.379 8.1094-17.227 17.773v70c-0.35156 23.668 35.336 23.668 35 0v-70c0.14062-9.8789-7.8945-17.926-17.773-17.773zm-160.92 66.785c-15.758 0-23.559 19.117-12.238 30.078l49.492 49.492c16.492 17.215 41.961-8.2578 24.746-24.75l-49.492-49.488c-3.2812-3.3945-7.793-5.3164-12.508-5.3359zm321.9 0c-4.5508 0-8.8672 2.0664-12.031 5.3359l-49.492 49.488c-17.215 16.492 8.2539 41.961 24.746 24.75l49.492-49.492c11.504-11.121 3.2812-30.582-12.715-30.078zm-160.71 73.691c-57.785 0-105 47.219-105 105 0 57.785 47.219 105 105 105s105-47.215 105-105c0-57.781-47.219-105-105-105zm-227.77 87.5c-23.664-0.35156-23.664 35.336 0 35h70c23.664 0.35156 23.664-35.336 0-35zm385.55 0c-23.664-0.35156-23.664 35.336 0 35h70c23.664 0.35156 23.664-35.336 0-35zm-269.68 111.43c-4.543 0-8.8555 1.9961-12.031 5.2656l-49.492 49.488c-17.215 16.492 8.2539 41.965 24.746 24.75l49.492-49.492c11.383-11.129 3.1992-30.441-12.715-30.008zm223.26 0c-15.648 0-23.352 19.066-12.168 30.008l49.492 49.492c16.492 17.215 41.961-8.2578 24.746-24.75l-49.492-49.488c-3.3086-3.3945-7.8477-5.2812-12.578-5.2656zm-111.63 46.074c-9.6641 0-17.379 8.1094-17.227 17.773v70c-0.35156 23.668 35.336 23.668 35 0v-70c0.14062-9.8789-7.8945-17.926-17.773-17.773z"/>
</svg>
