<?xml version="1.0" encoding="UTF-8"?>
<svg width="700pt" height="700pt" version="1.1" viewBox="0 0 700 550" xmlns="http://www.w3.org/2000/svg" xmlns:xlink="http://www.w3.org/1999/xlink">
 <g fill="white">
  <path d="m568.4 397.6h-33.602c-9.2773 0-16.801-7.5195-16.801-16.801 0-9.2773 7.5195-16.801 16.801-16.801h33.602c9.2773 0 16.801 7.5195 16.801 16.801 0 9.2773-7.5195 16.801-16.801 16.801z"/>
  <path d="m165.2 397.6h-33.602c-9.2773 0-16.801-7.5195-16.801-16.801 0-9.2773 7.5195-16.801 16.801-16.801h33.602c9.2773 0 16.801 7.5195 16.801 16.801 0 9.2773-7.5195 16.801-16.801 16.801z"/>
  <path d="m203.72 258.28-20.031-20.031c-6.5625-6.5625-6.5625-17.191 0-23.754s17.191-6.5625 23.754 0l20.031 20.031c6.5625 6.5625 6.5625 17.191 0 23.754s-17.191 6.5625-23.754 0z"/>
  <path d="m472.52 258.28c-6.5625-6.5625-6.5625-17.191 0-23.754l20.031-20.031c6.5625-6.5625 17.191-6.5625 23.754 0s6.5625 17.191 0 23.754l-20.031 20.031c-6.5625 6.5625-17.191 6.5625-23.754 0z"/>
  <path d="m220.02 414.4c-2.7891-10.762-4.4219-21.977-4.4219-33.598 0-74.105 60.297-134.4 134.4-134.4 74.105 0 134.4 60.297 134.4 134.4 0 11.621-1.6367 22.836-4.4258 33.602z"/>
  <path d="m509.6 481.6h-319.2c-4.6367 0-8.3984-3.7617-8.3984-8.3984v-16.801c0-4.6367 3.7617-8.3984 8.3984-8.3984h319.2c4.6367 0 8.3984 3.7617 8.3984 8.3984v16.801c0 4.6328-3.7617 8.3984-8.3984 8.3984z"/>
  <path d="m350 78.398c9.2773 0 16.801 7.5195 16.801 16.801v60.246l21.723-21.723c6.5625-6.5625 17.191-6.5625 23.754 0s6.5625 17.191 0 23.754l-50.395 50.395c-3.1094 3.1133-7.4961 4.9297-11.883 4.9297s-8.7734-1.8125-11.883-4.9297l-50.395-50.395c-6.5625-6.5625-6.5625-17.191 0-23.754s17.191-6.5625 23.754 0l21.723 21.723v-60.246c0-9.2773 7.5234-16.801 16.801-16.801z"/>
  <use x="70" y="644" xlink:href="#u"/>
  <use x="90.550781" y="644" xlink:href="#b"/>
  <use x="104.359375" y="644" xlink:href="#a"/>
  <use x="123.347656" y="644" xlink:href="#d"/>
  <use x="142.242188" y="644" xlink:href="#c"/>
  <use x="155.628906" y="644" xlink:href="#a"/>
  <use x="174.617188" y="644" xlink:href="#k"/>
  <use x="204.410156" y="644" xlink:href="#g"/>
  <use x="224.453125" y="644" xlink:href="#f"/>
  <use x="252.453125" y="644" xlink:href="#j"/>
  <use x="274.121094" y="644" xlink:href="#f"/>
  <use x="292.375" y="644" xlink:href="#i"/>
  <use x="312.304688" y="644" xlink:href="#g"/>
  <use x="342.097656" y="644" xlink:href="#t"/>
  <use x="352.515625" y="644" xlink:href="#b"/>
  <use x="366.324219" y="644" xlink:href="#d"/>
  <use x="385.21875" y="644" xlink:href="#s"/>
  <use x="411.085938" y="644" xlink:href="#d"/>
  <use x="429.980469" y="644" xlink:href="#h"/>
  <use x="70" y="672" xlink:href="#r"/>
  <use x="82.183594" y="672" xlink:href="#b"/>
  <use x="95.992188" y="672" xlink:href="#e"/>
  <use x="115.226562" y="672" xlink:href="#q"/>
  <use x="154.152344" y="672" xlink:href="#c"/>
  <use x="167.535156" y="672" xlink:href="#p"/>
  <use x="187.46875" y="672" xlink:href="#a"/>
  <use x="216.207031" y="672" xlink:href="#o"/>
  <use x="239.640625" y="672" xlink:href="#e"/>
  <use x="258.878906" y="672" xlink:href="#i"/>
  <use x="278.8125" y="672" xlink:href="#h"/>
  <use x="308.492188" y="672" xlink:href="#n"/>
  <use x="329.015625" y="672" xlink:href="#b"/>
  <use x="342.820312" y="672" xlink:href="#e"/>
  <use x="362.058594" y="672" xlink:href="#m"/>
  <use x="371.65625" y="672" xlink:href="#a"/>
  <use x="390.648438" y="672" xlink:href="#l"/>
  <use x="407.242188" y="672" xlink:href="#c"/>
 </g>
</svg>
