<?xml version="1.0" encoding="UTF-8"?>
<svg width="700pt" height="700pt" version="1.1" viewBox="0 0 600 700" xmlns="http://www.w3.org/2000/svg" xmlns:xlink="http://www.w3.org/1999/xlink">
 <g fill="white">
  <path d="m298.48 546.56c75.039 14.559 140-42.559 140-115.36 0-38.078-19.039-72.801-48.16-94.078v-256.48c0-38.078-30.238-69.441-69.441-69.441-38.078 0-69.441 31.359-69.441 69.441v256.48c-34.719 25.762-54.879 69.441-44.801 118.72 8.9648 44.801 45.922 81.762 91.844 90.719zm-32.48-188.16 10.078-7.8398v-268.8c0-24.641 20.16-43.68 43.68-43.68 24.641 0 44.801 20.16 44.801 43.68v268.8l10.078 7.8398c23.52 16.801 36.961 44.801 36.961 73.922 0 24.641-10.078 48.16-26.879 64.961-17.922 16.801-40.32 26.879-64.961 26.879-45.922 0-81.762-32.48-89.602-72.801-5.5977-36.961 7.8438-72.801 35.844-92.961z"/>
  <path d="m320.88 497.28c17.922 0 34.719-6.7188 47.039-19.039 12.32-12.32 19.039-29.121 19.039-47.039 0-44.801-38.078-59.359-48.16-68.32l0.003906-189.28h-36.961v189.28c-7.8398 8.9609-57.121 26.879-45.922 81.762 5.6016 29.117 31.363 52.637 64.961 52.637z"/>
  <path d="m483.28 87.359h-63.84v25.762h63.84c6.7188 0 12.32-5.6016 12.32-12.32 1.1172-7.8398-4.4805-13.441-12.32-13.441z"/>
  <path d="m470.96 168c0-6.7188-5.6016-12.32-12.32-12.32h-38.078v25.762h38.078c6.7188-1.1211 12.32-6.7227 12.32-13.441z"/>
  <path d="m496.72 235.2c0-6.7188-5.6016-12.32-12.32-12.32h-63.84v25.762h63.84c6.7227 0 12.32-6.7188 12.32-13.441z"/>
  <use x="70" y="728" xlink:href="#l"/>
  <use x="111.097656" y="728" xlink:href="#c"/>
  <use x="138.714844" y="728" xlink:href="#a"/>
  <use x="176.695312" y="728" xlink:href="#h"/>
  <use x="214.484375" y="728" xlink:href="#b"/>
  <use x="241.253906" y="728" xlink:href="#a"/>
  <use x="279.234375" y="728" xlink:href="#g"/>
  <use x="338.816406" y="728" xlink:href="#f"/>
  <use x="378.902344" y="728" xlink:href="#e"/>
  <use x="434.902344" y="728" xlink:href="#d"/>
  <use x="478.242188" y="728" xlink:href="#a"/>
  <use x="516.222656" y="728" xlink:href="#k"/>
  <use x="549.417969" y="728" xlink:href="#b"/>
  <use x="576.1875" y="728" xlink:href="#j"/>
  <use x="614.660156" y="728" xlink:href="#c"/>
  <use x="642.277344" y="728" xlink:href="#i"/>
 </g>
</svg>
