<?xml version="1.0" encoding="UTF-8"?>
<svg width="700pt" height="700pt" version="1.1" viewBox="0 0 700 550" xmlns="http://www.w3.org/2000/svg" xmlns:xlink="http://www.w3.org/1999/xlink">
 <g fill="white">
  <path d="m560.56 172.48-251.44 261.52c-14 14.559-36.398 14.559-50.398 0l-125.44-131.6c-14-14.559-14-38.078 0-52.641 14-14.559 36.398-14.559 50.398 0l100.8 105.28 226.24-235.2c14-14.559 36.398-14.559 50.398 0 13.441 14.559 13.441 38.082-0.55859 52.641z" fill-rule="evenodd"/>
  <use x="70" y="644" xlink:href="#v"/>
  <use x="90.546875" y="644" xlink:href="#d"/>
  <use x="104.355469" y="644" xlink:href="#b"/>
  <use x="123.347656" y="644" xlink:href="#j"/>
  <use x="142.242188" y="644" xlink:href="#a"/>
  <use x="155.625" y="644" xlink:href="#b"/>
  <use x="174.617188" y="644" xlink:href="#i"/>
  <use x="204.40625" y="644" xlink:href="#h"/>
  <use x="224.449219" y="644" xlink:href="#g"/>
  <use x="252.449219" y="644" xlink:href="#f"/>
  <use x="274.011719" y="644" xlink:href="#c"/>
  <use x="293.25" y="644" xlink:href="#e"/>
  <use x="313.179688" y="644" xlink:href="#u"/>
  <use x="322.78125" y="644" xlink:href="#a"/>
  <use x="336.164062" y="644" xlink:href="#e"/>
  <use x="365.84375" y="644" xlink:href="#t"/>
  <use x="403.457031" y="644" xlink:href="#s"/>
  <use x="70" y="672" xlink:href="#r"/>
  <use x="82.183594" y="672" xlink:href="#d"/>
  <use x="95.992188" y="672" xlink:href="#c"/>
  <use x="115.226562" y="672" xlink:href="#q"/>
  <use x="154.152344" y="672" xlink:href="#a"/>
  <use x="167.535156" y="672" xlink:href="#e"/>
  <use x="187.46875" y="672" xlink:href="#b"/>
  <use x="216.207031" y="672" xlink:href="#p"/>
  <use x="239.640625" y="672" xlink:href="#c"/>
  <use x="258.878906" y="672" xlink:href="#o"/>
  <use x="278.8125" y="672" xlink:href="#n"/>
  <use x="308.492188" y="672" xlink:href="#m"/>
  <use x="329.015625" y="672" xlink:href="#d"/>
  <use x="342.820312" y="672" xlink:href="#c"/>
  <use x="362.058594" y="672" xlink:href="#l"/>
  <use x="371.65625" y="672" xlink:href="#b"/>
  <use x="390.648438" y="672" xlink:href="#k"/>
  <use x="407.242188" y="672" xlink:href="#a"/>
 </g>
</svg>
