<?xml version="1.0" encoding="UTF-8"?>
<svg width="700pt" height="700pt" version="1.1" viewBox="0 0 700 550" xmlns="http://www.w3.org/2000/svg" xmlns:xlink="http://www.w3.org/1999/xlink">
 <g fill="white">
  <path d="m490 140c4.6406 0 8.3984 3.7617 8.3984 8.3984 0 4.6406-3.7578 8.4023-8.3984 8.4023h-5.7891c-1.5547 0-2.8633 1.1992-2.9219 2.8398l-10.047 266.25c-0.64063 16.887-14.773 30.512-31.641 30.512h-179.2c-16.887 0-31-13.617-31.641-30.512l-10.047-266.25c-0.058594-1.5703-1.375-2.8398-2.9219-2.8398h-5.7891c-4.6406 0-8.3984-3.7617-8.3984-8.4023 0-4.6367 3.7578-8.3984 8.3984-8.3984h74.445c1.5195 0 3.2109-1.1523 3.8086-2.6523l3.9414-9.8516c4.1445-10.367 15.859-18.297 27.004-18.297h61.602c11.176 0 22.848 7.9023 27.004 18.297l3.9414 9.8516c0.58594 1.4648 2.2734 2.6523 3.8086 2.6523zm-145.6 72.801v190.4c0 4.6406 3.7617 8.4023 8.4023 8.4023 4.6367 0 8.3984-3.7617 8.3984-8.4023v-190.4c0-4.6406-3.7617-8.4023-8.3984-8.4023-4.6406 0-8.4023 3.7617-8.4023 8.4023zm-64.395 0.24609 5.6016 190.4c0.13281 4.6406 4.0039 8.2891 8.6406 8.1523 4.6367-0.13672 8.2852-4.0078 8.1484-8.6445l-5.5977-190.4c-0.13672-4.6406-4.0078-8.2891-8.6445-8.1523-4.6367 0.13672-8.2852 4.0078-8.1484 8.6445zm123.2-0.49219-5.5977 190.4c-0.13672 4.6367 3.5117 8.5078 8.1484 8.6445 4.6367 0.13672 8.5078-3.5117 8.6406-8.1523l5.6016-190.4c0.13672-4.6367-3.5117-8.5078-8.1484-8.6445-4.6367-0.13672-8.5078 3.5117-8.6445 8.1523zm-95.41-78.82-2.5078 6.2656h86.652c1.5117 0 2.3203-1.1406 1.7578-2.5469l-1.4883-3.7188c-1.6055-4.0156-7.1016-7.7344-11.406-7.7344h-61.602c-4.2773 0-9.8125 3.7461-11.406 7.7344z"/>
  <use x="70" y="644" xlink:href="#t"/>
  <use x="90.550781" y="644" xlink:href="#f"/>
  <use x="104.359375" y="644" xlink:href="#a"/>
  <use x="123.347656" y="644" xlink:href="#e"/>
  <use x="142.242188" y="644" xlink:href="#d"/>
  <use x="155.628906" y="644" xlink:href="#a"/>
  <use x="174.617188" y="644" xlink:href="#c"/>
  <use x="204.410156" y="644" xlink:href="#j"/>
  <use x="224.453125" y="644" xlink:href="#i"/>
  <use x="252.453125" y="644" xlink:href="#h"/>
  <use x="270.292969" y="644" xlink:href="#e"/>
  <use x="289.1875" y="644" xlink:href="#g"/>
  <use x="309.121094" y="644" xlink:href="#c"/>
  <use x="329.164062" y="644" xlink:href="#e"/>
  <use x="348.058594" y="644" xlink:href="#g"/>
  <use x="377.742188" y="644" xlink:href="#h"/>
  <use x="395.582031" y="644" xlink:href="#s"/>
  <use x="405.179688" y="644" xlink:href="#b"/>
  <use x="424.414062" y="644" xlink:href="#i"/>
  <use x="442.667969" y="644" xlink:href="#c"/>
  <use x="70" y="672" xlink:href="#r"/>
  <use x="82.183594" y="672" xlink:href="#f"/>
  <use x="95.992188" y="672" xlink:href="#b"/>
  <use x="115.226562" y="672" xlink:href="#q"/>
  <use x="154.152344" y="672" xlink:href="#d"/>
  <use x="167.535156" y="672" xlink:href="#p"/>
  <use x="187.46875" y="672" xlink:href="#a"/>
  <use x="216.207031" y="672" xlink:href="#o"/>
  <use x="239.640625" y="672" xlink:href="#b"/>
  <use x="258.878906" y="672" xlink:href="#n"/>
  <use x="278.8125" y="672" xlink:href="#g"/>
  <use x="308.492188" y="672" xlink:href="#m"/>
  <use x="329.015625" y="672" xlink:href="#f"/>
  <use x="342.820312" y="672" xlink:href="#b"/>
  <use x="362.058594" y="672" xlink:href="#l"/>
  <use x="371.65625" y="672" xlink:href="#a"/>
  <use x="390.648438" y="672" xlink:href="#k"/>
  <use x="407.242188" y="672" xlink:href="#d"/>
 </g>
</svg>
