<?xml version="1.0" encoding="UTF-8"?>
<svg width="700pt" height="600pt" version="1.1" viewBox="0 0 700 600" xmlns="http://www.w3.org/2000/svg">
 <path fill='white' d="m587.3 414.4-187.95-325.67c-6.6719-11.641-17.238-20.551-29.84-25.152-12.602-4.6016-26.422-4.6016-39.023 0-12.602 4.6016-23.168 13.512-29.84 25.152l-187.95 325.67c-10.098 17.633-10.055 39.305 0.11328 56.895 10.164 17.594 28.918 28.449 49.238 28.508h375.9c20.32-0.058593 39.074-10.914 49.238-28.508 10.168-17.59 10.211-39.262 0.11328-56.895zm-30.273 39.375h-0.003906c-1.8906 3.3867-4.6602 6.1992-8.0195 8.1406-3.3555 1.9414-7.1758 2.9375-11.055 2.8867h-375.9c-3.8789 0.050781-7.6992-0.94531-11.055-2.8867-3.3594-1.9414-6.1289-4.7539-8.0195-8.1406-1.9727-3.3047-3.0156-7.0859-3.0156-10.938 0-3.8477 1.043-7.6289 3.0156-10.938l188.12-325.67c2.5312-4.4883 6.5742-7.9297 11.41-9.707 4.832-1.7773 10.145-1.7773 14.977 0 4.8359 1.7773 8.8789 5.2188 11.41 9.707l188.12 325.67c1.9727 3.3086 3.0156 7.0898 3.0156 10.938 0 3.8516-1.043 7.6328-3.0156 10.938zm-224.53-114.97v-147.88c0-6.2539 3.3359-12.031 8.75-15.156s12.086-3.125 17.5 0 8.75 8.9023 8.75 15.156v147.88c0 6.25-3.3359 12.027-8.75 15.156-5.4141 3.125-12.086 3.125-17.5 0-5.4141-3.1289-8.75-8.9062-8.75-15.156zm44.273 64.75c0 7.1016-2.8203 13.91-7.8398 18.934-5.0234 5.0195-11.832 7.8398-18.934 7.8398s-13.91-2.8203-18.934-7.8398c-5.0195-5.0234-7.8398-11.832-7.8398-18.934 0-7.1016 2.8203-13.914 7.8398-18.934 5.0234-5.0195 11.832-7.8438 18.934-7.8438 7.0859 0.046874 13.871 2.8828 18.883 7.8945 5.0117 5.0117 7.8477 11.797 7.8906 18.883z"/>
</svg>
