<?xml version="1.0" encoding="UTF-8"?>
<svg width="700pt" height="700pt" version="1.1" viewBox="0 0 700 550" xmlns="http://www.w3.org/2000/svg">
 <path fill="white" d="m302.77 370.38c-27.395 27.25-27.496 71.613-0.25 98.988 27.238 27.383 71.598 27.508 98.988 0.25 27.395-27.25 27.496-71.613 0.25-98.988-27.238-27.383-71.598-27.508-98.988-0.25zm-98.742-99.246s-24.035 25.473-0.125 49.5c23.91 24.031 49.5 0.125 49.5 0.125 54.805-54.527 143.46-54.309 198 0.50391 0 0 24.684 24.809 49.5 0.125 24.809-24.691 0.125-49.5 0.125-49.5-81.777-82.188-214.79-82.539-296.99-0.75391h-0.007812zm-98.742-99.246s-24.816 24.691-0.125 49.5c24.684 24.816 49.5 0.125 49.5 0.125 109.62-109.06 286.91-108.61 395.97 1.0039 0 0 24.691 24.809 49.5 0.125 24.816-24.691 0.125-49.5 0.125-49.5-136.32-137.02-357.93-137.61-494.98-1.2578z" fill-rule="evenodd"/>
</svg>
