<?xml version="1.0" encoding="UTF-8"?>
<svg width="700pt" height="700pt" version="1.1" viewBox="0 0 700 550" xmlns="http://www.w3.org/2000/svg">
 <path fill="white" d="m151.67 23.332c6.1875 0 12.121 2.4609 16.496 6.8359 4.3789 4.375 6.8359 10.309 6.8359 16.5v466.66c0 8.3359-4.4492 16.039-11.668 20.207-7.2188 4.168-16.113 4.168-23.332 0-7.2188-4.168-11.668-11.871-11.668-20.207v-466.66c0-6.1914 2.4609-12.125 6.8359-16.5s10.309-6.8359 16.5-6.8359zm291.66 89.168-70-15v178.34l70-15zm46.668 138.33 63.223-13.547c5.2188-1.1172 9.8984-3.9922 13.258-8.1445 3.3555-4.1523 5.1875-9.332 5.1875-14.672v-55.605c0-5.3398-1.832-10.52-5.1875-14.668-3.3594-4.1523-8.0391-7.0312-13.258-8.1484l-63.223-13.547zm-245-151.97v175.61c0 7.0508 3.1836 13.723 8.668 18.152 5.4805 4.4297 12.672 6.1445 19.566 4.6641l53.434-11.453v-198.33l-53.434-11.453c-6.8945-1.4805-14.086 0.23438-19.566 4.6641-5.4844 4.4336-8.668 11.105-8.668 18.152z"/>
</svg>
